<svg xmlns="http://www.w3.org/2000/svg" id="ic_doctor_info_active" width="15.189" height="15.372" viewBox="0 0 15.189 15.372">
    <defs>
        <style>
            .cls-1{fill:#1277d1}
        </style>
    </defs>
    <g id="Group_289">
        <g id="Group_288">
            <circle id="Ellipse_123" cx="3.766" cy="3.766" r="3.766" class="cls-1" transform="translate(3.828)"/>
            <circle id="Ellipse_124" cx=".562" cy=".562" r=".562" class="cls-1" transform="translate(10.214 11.555)"/>
            <path id="Path_1169" d="M116.972 297.756a1.37 1.37 0 0 0-.932-.41 1.323 1.323 0 0 0-.943.425 4.669 4.669 0 0 1 1.875-.015z" class="cls-1" transform="translate(-111.598 -287.757)"/>
            <path id="Path_1170" d="M15.176 232.181a9.105 9.105 0 0 0-3.954-6.545 11.658 11.658 0 0 1-.037 3.356 1.374 1.374 0 0 1 .8 1.3 1.282 1.282 0 0 1-1.169 1.368 1.281 1.281 0 0 1-1.169-1.368 1.325 1.325 0 0 1 .906-1.324 11.481 11.481 0 0 0-.012-3.708 1.775 1.775 0 0 0-.254-.112 3.584 3.584 0 0 1-2.689 1.284 3.548 3.548 0 0 1-2.651-1.255 4.652 4.652 0 0 0-.276 1.89c1.023.225 1.808 1.607 1.808 3.287a4.848 4.848 0 0 1-.313 1.749.882.882 0 0 1-.8.537.7.7 0 0 1 0-1.379 1.155 1.155 0 0 1 .375.083 4.381 4.381 0 0 0-.059-2.228 2.93 2.93 0 0 0-2.6 0 4.308 4.308 0 0 0-.059 2.228.91.91 0 0 1 .375-.1.7.7 0 0 1 0 1.379.911.911 0 0 1-.785-.508 4.751 4.751 0 0 1-.326-1.778c0-1.651.772-3.019 1.771-3.272a6.32 6.32 0 0 1 .133-1.564 9.034 9.034 0 0 0-4.174 6.679 1.142 1.142 0 0 0 1 1.368h13.148a1.139 1.139 0 0 0 1.011-1.367z" class="cls-1" transform="translate(0 -218.176)"/>
        </g>
    </g>
</svg>
