<svg xmlns="http://www.w3.org/2000/svg" width="185.012" height="185.002" viewBox="0 0 185.012 185.002">
  <path id="stethoscope-solid" d="M161.56,40.489a23.12,23.12,0,0,0-11.2,43.145v40.688c0,20.705-18.14,37.581-40.471,37.581-21.681,0-39.46-15.936-40.435-35.846A57.97,57.97,0,0,0,115.633,69.4V13.243a8.667,8.667,0,0,0-6.974-8.492L85.929.2a8.65,8.65,0,0,0-10.19,6.793l-1.156,5.673a8.65,8.65,0,0,0,6.793,10.19l11.093,2.2V68.928c0,19.116-15.249,34.943-34.365,35.123A34.7,34.7,0,0,1,23.09,69.361V25.1l11.094-2.2A8.65,8.65,0,0,0,40.977,12.7l-1.12-5.673A8.65,8.65,0,0,0,29.667.235L6.974,4.715A8.706,8.706,0,0,0,0,13.243V69.4a57.9,57.9,0,0,0,46.289,56.66c.94,32.666,29.089,58.973,63.562,58.973,35.051,0,63.6-27.246,63.6-60.707V83.635A23.122,23.122,0,0,0,161.56,40.489Zm.325,28.908a5.782,5.782,0,1,1,5.782-5.782A5.8,5.8,0,0,1,161.886,69.4Z" transform="translate(0 -0.028)" fill="#1277d1"/>
</svg>
