<svg xmlns="http://www.w3.org/2000/svg" width="24.731" height="24.731" viewBox="0 0 24.731 24.731">
    <defs>
        <style>
            .cls-2{fill:#c5c4c4}
        </style>
    </defs>
    <g id="ic_video_call_immediate_blue">
        <g id="Phone" transform="translate(0 .424)">
            <path id="Rectangle_320" fill="none" d="M0 0H20.872V20.872H0z" transform="translate(1.719 1.719)"/>
            <path id="Path_110" d="M14.109 17.364l2.6-2.388a.8.8 0 0 1 .651-.217l.434.217 6.082 2.824c.434.217.434.434.434.868a5.5 5.5 0 0 1-1.736 3.907 6.218 6.218 0 0 1-4.558 1.736 13.225 13.225 0 0 1-6.078-1.519A28.454 28.454 0 0 1 5.86 18.45a36.971 36.971 0 0 1-3.26-4.776A30 30 0 0 1 .434 8.9 13.357 13.357 0 0 1 0 4.775a5.7 5.7 0 0 1 1.519-3.256C2.388.651 3.69.217 5.643 0a1.128 1.128 0 0 1 .868.434l3.256 6.078a.758.758 0 0 0 .217.434.8.8 0 0 1-.217.651L6.946 10.2a.969.969 0 0 0 0 1.085 20.727 20.727 0 0 0 2.6 3.473 21.916 21.916 0 0 0 3.473 2.822c.438.22.873.22 1.09-.216z" class="cls-2"/>
        </g>
        <g id="alert" transform="translate(12.878 .21)">
            <path id="Path_1244" d="M61 452.045a.341.341 0 0 0 .341.341h8.18a.341.341 0 0 0 .341-.341V451H61z" class="cls-2" transform="translate(-59.756 -440.752)"/>
            <path id="Path_1245" d="M109.408 120a3.412 3.412 0 0 0-3.408 3.408v3.431h6.817v-3.431a3.412 3.412 0 0 0-3.409-3.408z" class="cls-2" transform="translate(-103.733 -117.273)"/>
            <path id="Path_1246" d="M240.341 2.045a.341.341 0 0 0 .341-.341V.341a.341.341 0 0 0-.682 0V1.7a.341.341 0 0 0 .341.345z" class="cls-2" transform="translate(-234.688)"/>
            <path id="Path_1247" d="M105.609 38.431a.341.341 0 0 0 .59-.341l-.682-1.181a.341.341 0 1 0-.59.341z" class="cls-2" transform="translate(-102.64 -35.904)"/>
            <path id="Path_1248" d="M8.054 137.306a.341.341 0 0 0-.125-.466l-1.181-.682a.341.341 0 0 0-.341.59l1.181.682a.341.341 0 0 0 .466-.124z" class="cls-2" transform="translate(-6.237 -133.02)"/>
            <path id="Path_1249" d="M347.284 38.555a.341.341 0 0 0 .466-.125l.682-1.181a.341.341 0 0 0-.59-.341l-.682 1.181a.341.341 0 0 0 .124.466z" class="cls-2" transform="translate(-339.368 -35.903)"/>
            <path id="Path_1250" d="M425.612 136.285a.341.341 0 0 0-.466-.125l-1.181.682a.341.341 0 1 0 .341.59l1.181-.682a.341.341 0 0 0 .125-.465z" class="cls-2" transform="translate(-414.307 -133.021)"/>
        </g>
    </g>
</svg>
