<svg xmlns="http://www.w3.org/2000/svg" width="24.519" height="24.519" viewBox="0 0 24.519 24.519">
    <g>
        <path fill="none" d="M0 0H21.081V21.081H0z" transform="translate(0 -1) translate(1.719 1.719)"/>
        <path fill="#1277d1" d="M14.23 17.514l2.627-2.408a.8.8 0 0 1 .657-.219l.438.219 6.13 2.846c.438.219.438.438.438.876-.219 1.751-.657 3.065-1.751 3.941a6.271 6.271 0 0 1-4.6 1.751 13.339 13.339 0 0 1-6.13-1.532 28.7 28.7 0 0 1-6.13-4.378 37.289 37.289 0 0 1-3.284-4.816A30.261 30.261 0 0 1 .438 8.976 13.472 13.472 0 0 1 0 4.816a5.753 5.753 0 0 1 1.532-3.284C2.408.657 3.722.219 5.692 0a1.137 1.137 0 0 1 .876.438l3.284 6.13a.764.764 0 0 0 .219.438.8.8 0 0 1-.219.657l-2.847 2.626a.977.977 0 0 0 0 1.095 20.906 20.906 0 0 0 2.627 3.5 22.1 22.1 0 0 0 3.5 2.846c.441.222.879.222 1.098-.216z" transform="translate(0 -1) translate(0 1)"/>
    </g>
</svg>
