<svg width="137" height="54" viewBox="0 0 137 54" fill="none" xmlns="http://www.w3.org/2000/svg">
<g filter="url(#filter0_dd_1_40)">
<path d="M122.104 41.9967H15.0404C12.685 41.9967 10.7578 40.0846 10.7578 37.7476V12.2525C10.7578 9.91547 12.6849 8.00335 15.0404 8.00335H122.104C124.46 8.00335 126.387 9.91547 126.387 12.2525V37.7475C126.387 40.0846 124.46 41.9967 122.104 41.9967Z" fill="white"/>
</g>
<path d="M51.3718 16.7084C51.3718 17.4204 51.1592 17.9874 50.7337 18.4104C50.2502 18.9133 49.6202 19.165 48.8456 19.165C48.1039 19.165 47.4732 18.91 46.9546 18.3994C46.4351 17.8892 46.1758 17.2565 46.1758 16.5016C46.1758 15.7463 46.4351 15.114 46.9546 14.6033C47.4732 14.0931 48.1039 13.8378 48.8456 13.8378C49.2137 13.8378 49.566 13.9092 49.9006 14.0517C50.2351 14.1944 50.5035 14.384 50.7042 14.6213L50.2525 15.0698C49.9123 14.6664 49.4439 14.4649 48.8456 14.4649C48.3047 14.4649 47.8369 14.6535 47.4421 15.031C47.0473 15.4088 46.8499 15.8987 46.8499 16.5016C46.8499 17.1044 47.0473 17.5944 47.4421 17.9722C47.8369 18.3496 48.3046 18.5382 48.8456 18.5382C49.4195 18.5382 49.8979 18.3486 50.281 17.9689C50.5296 17.7215 50.6734 17.3776 50.7119 16.9361H48.8456V16.3236H51.3359C51.36 16.4568 51.3717 16.5846 51.3717 16.7084" fill="black"/>
<path d="M51.3722 16.7085H51.2866C51.2859 17.4043 51.0811 17.9447 50.6735 18.3504L50.6726 18.3511L50.6723 18.3518C50.2042 18.8373 49.6025 19.079 48.8461 19.0801C48.1241 19.079 47.5198 18.8347 47.0153 18.3394C46.5118 17.8431 46.2628 17.2373 46.2619 16.5017C46.2628 15.7657 46.5118 15.1602 47.0153 14.6642C47.5198 14.1686 48.1241 13.9239 48.8461 13.9229C49.2031 13.9229 49.543 13.992 49.8672 14.1298C50.1917 14.2686 50.4481 14.4504 50.6391 14.6762L50.7047 14.6214L50.6441 14.5613L50.1924 15.0101L50.253 15.0699L50.3189 15.0155C49.9629 14.5922 49.4631 14.3788 48.8461 14.38C48.2851 14.3794 47.7915 14.5783 47.3833 14.97C46.9712 15.363 46.7641 15.8806 46.7648 16.5017C46.7641 17.1228 46.9712 17.6403 47.3833 18.0333C47.7915 18.4251 48.2851 18.624 48.8461 18.6233C49.4389 18.6243 49.9442 18.4247 50.342 18.0291C50.6076 17.7648 50.7582 17.3987 50.7977 16.9435L50.8057 16.8512H48.9317V16.4087H51.3364V16.3237L51.252 16.3387C51.2755 16.4675 51.2865 16.59 51.2865 16.7085H51.4578C51.4578 16.5793 51.4458 16.4466 51.4207 16.3085L51.408 16.2387H48.7605V17.0212H50.7124V16.9362L50.6271 16.9289C50.5893 17.3565 50.4521 17.6785 50.2209 17.9089C49.8529 18.2727 49.4012 18.4523 48.8461 18.4533C48.3252 18.4526 47.8832 18.2747 47.5021 17.9112C47.1248 17.549 46.937 17.0866 46.9361 16.5017C46.937 15.9167 47.1248 15.4543 47.5021 15.0921C47.8832 14.7286 48.3252 14.5507 48.8461 14.55C49.4253 14.5514 49.8626 14.7412 50.1875 15.1247L50.2477 15.1957L50.7653 14.6815L50.8208 14.6264L50.7703 14.5669C50.5598 14.318 50.2794 14.1204 49.9348 13.9738C49.5896 13.8267 49.2252 13.7529 48.8461 13.7529C48.0846 13.7523 47.4275 14.0179 46.8945 14.5434C46.3596 15.0679 46.0899 15.7272 46.0907 16.5017C46.0899 17.2758 46.3596 17.9354 46.8949 18.4603C47.4275 18.9855 48.0846 19.2507 48.8461 19.25C49.6391 19.2507 50.2969 18.9894 50.7961 18.4692L50.7341 18.4105L50.7947 18.4706C51.2383 18.0307 51.4584 17.4365 51.4579 16.7085H51.3722M55.3201 14.5786H52.9798V16.1953H55.0903V16.808H52.9798V18.4247H55.3201V19.0512H52.32V13.9522H55.3201V14.5786" fill="black"/>
<path d="M55.3201 14.5785V14.4935H52.8941V16.2802H55.0046V16.7227L52.8941 16.723V18.5097H55.2344V18.9661H52.4057V14.0371H55.2344V14.5785H55.3201V14.4935V14.5785H55.4057V13.8671H52.2344V19.1361H55.4057V18.3397H53.0654V16.8929H55.1759V16.1103H53.0654V14.6635H55.4057V14.5785H55.3201M58.1048 19.0511H57.444V14.5785H56.0086V13.9521H59.5401V14.5785H58.1048V19.0511" fill="black"/>
<path d="M58.1045 19.0513V18.9663H57.5294V14.4937H56.094V14.0373H59.4542V14.4937H58.0189V19.0512H58.1045V18.9663V19.0512H58.1902V14.6636H59.6255V13.8673H55.9227V14.6636H57.3581V19.1362H58.1902V19.0512H58.1045M62.095 19.0513V13.9522H62.7551V19.0512H62.095" fill="black"/>
<path d="M62.0956 19.0513H62.1813V14.0372H62.6701V18.9663H62.0956V19.0512H62.1813H62.0956V19.1362H62.8414V13.8673H62.01V19.1362H62.0956V19.0512M65.6849 19.0513H65.0241V14.5786H63.5888V13.9522H67.1203V14.5786H65.6849V19.0512" fill="black"/>
<path d="M65.6846 19.0511V18.9661H65.1095V14.4935H63.6742V14.0371H67.0343V14.4935H65.599V19.0511H65.6846V18.9661V19.0511H65.7703V14.6635H67.2056V13.8671H63.5029V14.6634H64.9382V19.136H65.7703V19.051H65.6846M70.5246 17.9653C70.905 18.3473 71.3704 18.5382 71.9208 18.5382C72.4712 18.5382 72.9369 18.3473 73.3166 17.9653C73.6974 17.5832 73.8881 17.0947 73.8881 16.5016C73.8881 15.9084 73.6974 15.42 73.3166 15.0379C72.9369 14.6558 72.4712 14.4649 71.9208 14.4649C71.3704 14.4649 70.905 14.6558 70.5246 15.0379C70.1448 15.42 69.9542 15.9084 69.9542 16.5016C69.9542 17.0947 70.1448 17.5832 70.5246 17.9653ZM73.8051 18.3921C73.2999 18.9076 72.6716 19.165 71.9208 19.165C71.1693 19.165 70.5413 18.9076 70.0371 18.3921C69.5316 17.8772 69.28 17.2469 69.28 16.5016C69.28 15.7562 69.5316 15.1258 70.0371 14.611C70.5413 14.0954 71.1693 13.8378 71.9208 13.8378C72.6676 13.8378 73.2942 14.0968 73.8018 14.6143C74.3086 15.1319 74.5623 15.7609 74.5623 16.5016C74.5623 17.2469 74.3093 17.8772 73.8051 18.3921Z" fill="black"/>
<path d="M70.5246 17.9654L70.4637 18.0251C70.8582 18.4225 71.3503 18.6243 71.9208 18.6233C72.4909 18.6243 72.9837 18.4225 73.3775 18.0251C73.7746 17.6273 73.9743 17.1128 73.9737 16.5017C73.9743 15.8906 73.7746 15.376 73.3775 14.9782C72.9837 14.5809 72.4909 14.3791 71.9208 14.38C71.3503 14.3791 70.8582 14.5809 70.4637 14.9782C70.0676 15.376 69.8674 15.8906 69.8685 16.5017C69.8674 17.1128 70.0676 17.6273 70.4637 18.0251L70.5246 17.9654L70.5855 17.9056C70.2222 17.5387 70.0405 17.0773 70.0398 16.5017C70.0405 15.9261 70.2222 15.4646 70.5855 15.0977C70.9521 14.731 71.3901 14.551 71.9208 14.55C72.451 14.551 72.89 14.731 73.2557 15.0977C73.6198 15.4646 73.8014 15.9261 73.8021 16.5017C73.8014 17.0772 73.6198 17.5387 73.2557 17.9056C72.89 18.2724 72.4511 18.4523 71.9208 18.4533C71.3901 18.4523 70.9522 18.2724 70.5855 17.9056L70.5246 17.9654ZM73.8051 18.3922L73.7439 18.3332C73.2527 18.8324 72.6522 19.0791 71.9208 19.0801C71.1891 19.079 70.5885 18.8324 70.0983 18.3332C69.6082 17.8322 69.3663 17.228 69.3656 16.5017C69.3663 15.7753 69.6082 15.1711 70.0983 14.6702C70.5885 14.1709 71.189 13.9239 71.9208 13.9229C72.6474 13.9239 73.2466 14.1719 73.7405 14.6738C74.2323 15.1771 74.4756 15.7803 74.4766 16.5017C74.4756 17.228 74.233 17.8322 73.7439 18.3332L73.8051 18.3922L73.8667 18.4513C74.3859 17.9222 74.6485 17.2658 74.6479 16.5017C74.6485 15.7418 74.3849 15.0869 73.8633 14.5554C73.3414 14.0218 72.6876 13.752 71.9208 13.7529C71.1499 13.752 70.4942 14.0206 69.9756 14.5521C69.4553 15.0815 69.1936 15.7375 69.1943 16.5017C69.1936 17.2658 69.4553 17.9222 69.9756 18.4516C70.4942 18.9831 71.1499 19.2507 71.9208 19.25C72.6913 19.2507 73.347 18.9828 73.8667 18.4513L73.8051 18.3922ZM75.489 19.0512V13.9521H76.2927L78.7903 17.9188H78.8187L78.7903 16.9362V13.9521H79.4511V19.0511H78.7618L76.1488 14.8922H76.1203L76.1488 15.8752V19.0511L75.489 19.0512Z" fill="black"/>
<path d="M75.4886 19.0511H75.5742V14.0371H76.2447L78.7423 18.0038H78.9062L78.8755 16.9349V14.0371H79.365V18.9661H78.8089L76.1959 14.8072H76.032L76.0627 15.8766V18.9661H75.4886V19.0511H75.5742H75.4886V19.1361H76.234V15.8738L76.2056 14.8899L76.1199 14.8922V14.9772H76.1484V14.8922L76.0757 14.9374L78.7139 19.1361H79.5363V13.8671H78.7042V16.9371L78.7326 17.9211L78.8183 17.9188V17.8338H78.7898V17.9188L78.8625 17.8737L76.3397 13.8671H75.403V19.1361H75.4886V19.0511M102.349 33.4983H103.948V22.8743H102.349L102.349 33.4983ZM116.745 26.7013L114.913 31.3073H114.858L112.956 26.7013H111.235L114.086 33.1391L112.46 36.72H114.128L118.522 26.7013L116.745 26.7013ZM107.681 32.2916C107.157 32.2916 106.427 32.032 106.427 31.3893C106.427 30.5693 107.337 30.255 108.121 30.255C108.825 30.255 109.154 30.4053 109.582 30.6106C109.458 31.5945 108.604 32.2916 107.681 32.2916V32.2916ZM107.874 26.4689C106.717 26.4689 105.518 26.9748 105.023 28.0956L106.441 28.6831C106.744 28.0956 107.309 27.904 107.901 27.904C108.728 27.904 109.568 28.3963 109.582 29.271V29.3803C109.292 29.2162 108.673 28.9703 107.915 28.9703C106.386 28.9703 104.829 29.8038 104.829 31.3621C104.829 32.7836 106.083 33.6994 107.488 33.6994C108.562 33.6994 109.154 33.2211 109.527 32.6608H109.582V33.4807H111.124V29.4074C111.124 27.5216 109.706 26.4689 107.874 26.4689V26.4689ZM97.9965 27.9946H95.7233V24.353H97.9965C99.1914 24.353 99.8697 25.3345 99.8697 26.1737C99.8697 26.997 99.1913 27.9946 97.9965 27.9946ZM97.9554 22.8743H94.1259V33.4983H95.7233V29.4732H97.9554C99.7267 29.4732 101.468 28.2007 101.468 26.1737C101.468 24.1468 99.7267 22.8743 97.9554 22.8743V22.8743ZM77.0728 32.2936C75.9687 32.2936 75.0442 31.3764 75.0442 30.1165C75.0442 28.8435 75.9687 27.9123 77.0728 27.9123C78.1629 27.9123 79.0184 28.8435 79.0184 30.1165C79.0184 31.3764 78.1629 32.2936 77.0728 32.2936H77.0728ZM78.9079 27.2962H78.8527C78.4941 26.8719 77.8038 26.4885 76.9346 26.4885C75.1132 26.4885 73.4437 28.0766 73.4437 30.1165C73.4437 32.1429 75.1131 33.7174 76.9346 33.7174C77.8038 33.7174 78.4941 33.3339 78.8527 32.8961H78.9079V33.4163C78.9079 34.7993 78.1629 35.5386 76.9624 35.5386C75.9827 35.5386 75.3755 34.8401 75.1269 34.2515L73.7335 34.8265C74.1336 35.7848 75.1962 36.9624 76.9624 36.9624C78.839 36.9624 80.4259 35.8668 80.4259 33.1972V26.7076H78.9079V27.2962ZM81.5297 33.4983H83.1303V22.874H81.5297V33.4983ZM85.49 29.9934C85.4485 28.5968 86.5801 27.885 87.3941 27.885C88.0293 27.885 88.5672 28.1998 88.7462 28.652L85.49 29.9934ZM90.4575 28.7887C90.1543 27.9806 89.2293 26.4885 87.3389 26.4885C85.4623 26.4885 83.9031 27.9534 83.9031 30.1029C83.9031 32.1293 85.4485 33.7174 87.5182 33.7174C89.1882 33.7174 90.1543 32.7042 90.5543 32.1156L89.3123 31.294C88.8986 31.8965 88.3325 32.2936 87.5182 32.2936C86.7042 32.2936 86.1248 31.9238 85.752 31.1984L90.6228 29.1993L90.4575 28.7887ZM51.6505 27.5976V29.1309H55.3485C55.2381 29.9934 54.9483 30.6231 54.5067 31.0613C53.9687 31.5954 53.127 32.184 51.6505 32.184C49.3736 32.184 47.5937 30.3632 47.5937 28.1041C47.5937 25.8451 49.3736 24.024 51.6505 24.024C52.8787 24.024 53.7753 24.5033 54.4378 25.1194L55.5278 24.0379C54.6034 23.1615 53.3752 22.4907 51.6505 22.4907C48.5319 22.4907 45.9101 25.0099 45.9101 28.1041C45.9101 31.1984 48.5319 33.7174 51.6505 33.7174C53.3341 33.7174 54.6034 33.17 55.5968 32.1429C56.6179 31.1297 56.9354 29.7059 56.9354 28.556C56.9354 28.1998 56.908 27.8714 56.8524 27.5976H51.6505ZM61.1397 32.2936C60.0356 32.2936 59.0834 31.3899 59.0834 30.1029C59.0834 28.8023 60.0356 27.9123 61.1397 27.9123C62.2434 27.9123 63.1956 28.8023 63.1956 30.1029C63.1956 31.3899 62.2434 32.2936 61.1397 32.2936ZM61.1397 26.4885C59.1248 26.4885 57.4827 28.0082 57.4827 30.1029C57.4827 32.184 59.1248 33.7174 61.1397 33.7174C63.1541 33.7174 64.7962 32.184 64.7962 30.1029C64.7962 28.0082 63.1541 26.4885 61.1397 26.4885ZM69.1165 32.2936C68.0129 32.2936 67.0606 31.3899 67.0606 30.1029C67.0606 28.8023 68.0129 27.9123 69.1166 27.9123C70.2204 27.9123 71.1725 28.8023 71.1725 30.1029C71.1725 31.3899 70.2204 32.2936 69.1166 32.2936H69.1165ZM69.1165 26.4885C67.1018 26.4885 65.46 28.0082 65.46 30.1029C65.46 32.184 67.1018 33.7174 69.1166 33.7174C71.1311 33.7174 72.7732 32.184 72.7732 30.1029C72.7732 28.0082 71.1311 26.4885 69.1166 26.4885H69.1165Z" fill="black"/>
<path d="M19.7588 14.4716C19.4714 14.7289 19.2998 15.1581 19.2998 15.7278V15.599V34.3983V34.2744C19.2998 34.8006 19.447 35.2069 19.6962 35.4685L19.7598 35.529V35.5292C19.9615 35.7098 20.2202 35.8057 20.5167 35.8054C20.8063 35.8054 21.1322 35.7138 21.4762 35.5203L33.9086 28.5115L38.1791 26.1037C38.7215 25.798 39.0259 25.4036 39.0768 25.0019V25.0003C39.0259 24.5976 38.7215 24.2036 38.1791 23.8978L33.9083 21.4904L21.4762 14.4815C21.1315 14.2877 20.8054 14.1957 20.515 14.1957C20.2188 14.1957 19.9605 14.2913 19.7589 14.4716H19.7588Z" fill="#00C1FF"/>
<path d="M19.7598 35.5292L19.6962 35.4688C19.447 35.2072 19.2998 34.8008 19.2998 34.2747V34.3985V15.6039V15.7281C19.2998 15.1584 19.4714 14.7292 19.7588 14.4719L30.3708 25.0009L19.7598 35.5292Z" fill="url(#paint0_linear_1_40)"/>
<path d="M33.9079 28.5117L30.3701 25.0008L33.9076 21.4906L38.1784 23.898C38.7207 24.2038 39.0252 24.5978 39.0761 25.0005V25.0021C39.0252 25.4038 38.7207 25.7982 38.1784 26.1039L33.908 28.5116" fill="url(#paint1_linear_1_40)"/>
<path d="M20.5164 35.8055C20.22 35.8058 19.9613 35.7098 19.7596 35.5292V35.529L30.3706 25.0006L33.9084 28.5115L21.4759 35.5203C21.132 35.7139 20.8061 35.8055 20.5164 35.8055Z" fill="url(#paint2_linear_1_40)"/>
<path d="M30.3699 25.0004L19.7578 14.4714C19.9595 14.2911 20.2178 14.1955 20.5139 14.1955C20.8044 14.1955 21.1305 14.2875 21.4752 14.4813L33.9073 21.4902L30.3698 25.0004" fill="url(#paint3_linear_1_40)"/>
<path d="M20.516 35.9301C20.2196 35.9301 19.9606 35.8342 19.7589 35.6536L19.7585 35.6539C19.7577 35.6531 19.7568 35.6523 19.7559 35.6516L19.7007 35.5981C19.699 35.5964 19.6973 35.5945 19.6953 35.5926L19.7589 35.5294C19.9606 35.71 20.2193 35.8059 20.5158 35.8056C20.8054 35.8056 21.1313 35.714 21.4753 35.5205L33.9077 28.5117L33.9874 28.5907L33.9067 28.6362L21.4752 35.6446C21.1618 35.8209 20.8636 35.9128 20.5943 35.9282C20.5682 35.9294 20.5421 35.9301 20.516 35.9301" fill="url(#paint4_linear_1_40)"/>
<path d="M19.6962 35.5922C19.447 35.3306 19.2998 34.9246 19.2998 34.3981V34.2743C19.2998 34.8004 19.447 35.2067 19.6962 35.4684L19.7598 35.5288L19.6962 35.5922" fill="url(#paint5_linear_1_40)"/>
<path d="M33.988 28.5905L33.9084 28.5115L38.1788 26.1038C38.7212 25.7981 39.0257 25.4037 39.0766 25.002C39.0766 25.1494 39.0434 25.2968 38.9776 25.4402C38.8447 25.7293 38.5784 26.0025 38.1789 26.2279L33.988 28.5906" fill="url(#paint6_linear_1_40)"/>
<path d="M39.0768 25.0006C39.0259 24.5979 38.7215 24.2039 38.1791 23.8981L33.9083 21.4907L33.988 21.4116H33.9883L38.1791 23.7743C38.7771 24.1116 39.0765 24.556 39.0768 25.0006" fill="url(#paint7_linear_1_40)"/>
<path d="M19.2998 15.728V15.5981C19.2998 15.5513 19.3011 15.5055 19.3035 15.461V15.459C19.3035 15.4584 19.3035 15.4577 19.3037 15.4571V15.452C19.3295 14.9989 19.4714 14.6454 19.6962 14.4094L19.7588 14.4717C19.4714 14.7291 19.2998 15.1583 19.2998 15.728Z" fill="url(#paint8_linear_1_40)"/>
<path d="M33.9083 21.4907L21.4762 14.4817C21.1316 14.2879 20.8055 14.196 20.515 14.196C20.2189 14.196 19.9606 14.2916 19.7589 14.4719L19.6963 14.4094C19.7158 14.3889 19.7361 14.3691 19.7572 14.3501C19.7578 14.3494 19.7589 14.3487 19.7595 14.348C19.9596 14.1691 20.2152 14.0735 20.5087 14.0718H20.515C20.8055 14.0718 21.1316 14.1638 21.4762 14.3577L33.9883 21.4113L33.988 21.4116L33.9083 21.4907" fill="url(#paint9_linear_1_40)"/>
<defs>
<filter id="filter0_dd_1_40" x="0.757797" y="0.0033493" width="135.629" height="53.9934" filterUnits="userSpaceOnUse" color-interpolation-filters="sRGB">
<feFlood flood-opacity="0" result="BackgroundImageFix"/>
<feColorMatrix in="SourceAlpha" type="matrix" values="0 0 0 0 0 0 0 0 0 0 0 0 0 0 0 0 0 0 127 0" result="hardAlpha"/>
<feOffset dy="2"/>
<feGaussianBlur stdDeviation="2.5"/>
<feColorMatrix type="matrix" values="0 0 0 0 0 0 0 0 0 0 0 0 0 0 0 0 0 0 0.16 0"/>
<feBlend mode="normal" in2="BackgroundImageFix" result="effect1_dropShadow_1_40"/>
<feColorMatrix in="SourceAlpha" type="matrix" values="0 0 0 0 0 0 0 0 0 0 0 0 0 0 0 0 0 0 127 0" result="hardAlpha"/>
<feOffset dy="2"/>
<feGaussianBlur stdDeviation="5"/>
<feColorMatrix type="matrix" values="0 0 0 0 0 0 0 0 0 0 0 0 0 0 0 0 0 0 0.12 0"/>
<feBlend mode="normal" in2="effect1_dropShadow_1_40" result="effect2_dropShadow_1_40"/>
<feBlend mode="normal" in="SourceGraphic" in2="effect2_dropShadow_1_40" result="shape"/>
</filter>
<linearGradient id="paint0_linear_1_40" x1="26.0815" y1="15.4053" x2="17.0228" y2="24.5646" gradientUnits="userSpaceOnUse">
<stop stop-color="#00A0FF"/>
<stop offset="0.00657" stop-color="#00A1FF"/>
<stop offset="0.2601" stop-color="#00BEFF"/>
<stop offset="0.5122" stop-color="#00D2FF"/>
<stop offset="0.7604" stop-color="#00DFFF"/>
<stop offset="1" stop-color="#00E3FF"/>
</linearGradient>
<linearGradient id="paint1_linear_1_40" x1="39.7369" y1="24.9401" x2="19.0119" y2="24.9401" gradientUnits="userSpaceOnUse">
<stop stop-color="#FFE000"/>
<stop offset="0.4087" stop-color="#FFBD00"/>
<stop offset="0.7754" stop-color="#FFA500"/>
<stop offset="1" stop-color="#FF9C00"/>
</linearGradient>
<linearGradient id="paint2_linear_1_40" x1="32.0301" y1="28.3386" x2="16.6784" y2="43.7475" gradientUnits="userSpaceOnUse">
<stop stop-color="#FF3A44"/>
<stop offset="1" stop-color="#C31162"/>
</linearGradient>
<linearGradient id="paint3_linear_1_40" x1="17.0228" y1="12.9104" x2="23.8646" y2="19.7883" gradientUnits="userSpaceOnUse">
<stop stop-color="#32A071"/>
<stop offset="0.0685" stop-color="#2DA771"/>
<stop offset="0.4762" stop-color="#15CF74"/>
<stop offset="0.8009" stop-color="#06E775"/>
<stop offset="1" stop-color="#00F076"/>
</linearGradient>
<linearGradient id="paint4_linear_1_40" x1="32.0217" y1="30.7741" x2="19.7282" y2="43.2043" gradientUnits="userSpaceOnUse">
<stop stop-color="#CC2E36"/>
<stop offset="1" stop-color="#9C0E4E"/>
</linearGradient>
<linearGradient id="paint5_linear_1_40" x1="20.7135" y1="15.4049" x2="12.7329" y2="23.4743" gradientUnits="userSpaceOnUse">
<stop stop-color="#008DE0"/>
<stop offset="0.00657" stop-color="#008DE0"/>
<stop offset="0.2601" stop-color="#00A7E0"/>
<stop offset="0.5122" stop-color="#00B8E0"/>
<stop offset="0.7604" stop-color="#00C4E0"/>
<stop offset="1" stop-color="#00C7E0"/>
</linearGradient>
<linearGradient id="paint6_linear_1_40" x1="39.7374" y1="25.0012" x2="19.0123" y2="25.0012" gradientUnits="userSpaceOnUse">
<stop stop-color="#E0C500"/>
<stop offset="0.4087" stop-color="#E0A600"/>
<stop offset="0.7754" stop-color="#E09100"/>
<stop offset="1" stop-color="#E08900"/>
</linearGradient>
<linearGradient id="paint7_linear_1_40" x1="39.7376" y1="25.0014" x2="19.0127" y2="25.0014" gradientUnits="userSpaceOnUse">
<stop stop-color="#FFE840"/>
<stop offset="0.4087" stop-color="#FFCE40"/>
<stop offset="0.7754" stop-color="#FFBC40"/>
<stop offset="1" stop-color="#FFB540"/>
</linearGradient>
<linearGradient id="paint8_linear_1_40" x1="20.7047" y1="15.4196" x2="13.0148" y2="22.8582" gradientUnits="userSpaceOnUse">
<stop stop-color="#40B8FF"/>
<stop offset="0.00657" stop-color="#40B9FF"/>
<stop offset="0.2601" stop-color="#40CEFF"/>
<stop offset="0.5122" stop-color="#40DDFF"/>
<stop offset="0.7604" stop-color="#40E7FF"/>
<stop offset="1" stop-color="#40EAFF"/>
</linearGradient>
<linearGradient id="paint9_linear_1_40" x1="17.0084" y1="15.1376" x2="22.498" y2="20.6883" gradientUnits="userSpaceOnUse">
<stop stop-color="#65B895"/>
<stop offset="0.0685" stop-color="#62BD95"/>
<stop offset="0.4762" stop-color="#50DB97"/>
<stop offset="0.8009" stop-color="#44ED98"/>
<stop offset="1" stop-color="#40F498"/>
</linearGradient>
</defs>
</svg>
