<svg width="141" height="54" viewBox="0 0 141 54" fill="none" xmlns="http://www.w3.org/2000/svg">
<g filter="url(#filter0_dd_1_32)">
<path d="M130.775 38.5002C130.775 38.9467 130.685 39.3889 130.51 39.8014C130.335 40.2139 130.079 40.5886 129.756 40.9042C129.433 41.2198 129.049 41.47 128.627 41.6405C128.205 41.8111 127.753 41.8986 127.297 41.8982H13.4825C12.5601 41.8991 11.675 41.5417 11.0219 40.9044C10.3689 40.2672 10.0013 39.4024 10.0001 38.5002V11.4024C10.0013 10.4998 10.3687 9.63451 11.0217 8.99659C11.6746 8.35866 12.5596 8.00023 13.4825 8H127.296C127.753 8 128.205 8.08801 128.627 8.25901C129.049 8.43001 129.432 8.68064 129.755 8.9966C130.078 9.31255 130.334 9.68764 130.509 10.1004C130.684 10.5132 130.774 10.9556 130.774 11.4024L130.775 38.5002Z" fill="white"/>
</g>
<path d="M36.5219 24.7627C36.4956 21.9033 38.9157 20.5121 39.0264 20.4474C37.6558 18.4929 35.5313 18.2258 34.7847 18.2045C33.0005 18.0209 31.2697 19.2488 30.3608 19.2488C29.4337 19.2488 28.034 18.2223 26.5255 18.2524C24.5843 18.2817 22.7683 19.3809 21.7722 21.0879C19.7167 24.5684 21.2498 29.6831 23.2191 32.4964C24.2042 33.8752 25.3553 35.4127 26.862 35.3586C28.3361 35.3 28.8867 34.4403 30.6656 34.4403C32.4281 34.4403 32.9451 35.3586 34.4818 35.324C36.0638 35.3 37.0598 33.9399 38.0104 32.5497C39.1489 30.9713 39.606 29.4152 39.6242 29.3353C39.5879 29.3229 36.5527 28.1891 36.5219 24.7627V24.7627ZM33.6191 16.3538C34.4119 15.3841 34.9544 14.0648 34.8038 12.7261C33.6563 12.7757 32.2213 13.5024 31.3949 14.4508C30.6637 15.2865 30.0106 16.6564 30.1793 17.9446C31.4684 18.0386 32.7918 17.3084 33.6191 16.3538V16.3538Z" fill="black"/>
<path d="M57.8732 35.1608H55.8131L54.6847 31.6928H50.7623L49.6874 35.1608H47.6818L51.5687 23.354H53.969L57.8732 35.1608V35.1608ZM54.3445 30.2378L53.324 27.1547C53.2161 26.8398 53.0129 26.0981 52.7153 24.9305H52.6791C52.5593 25.4327 52.3679 26.1744 52.1058 27.1547L51.1025 30.2378H54.3445ZM67.8496 30.7994C67.8496 32.2473 67.4477 33.3918 66.6431 34.2319C65.9229 34.9798 65.0275 35.3534 63.9599 35.3534C62.8069 35.3534 61.9778 34.9515 61.4744 34.1459V38.6129H59.5404V29.4455C59.5404 28.5361 59.5159 27.6037 59.4688 26.6473H61.1696L61.2776 27.9967H61.3138C61.9588 26.98 62.9376 26.4716 64.2511 26.4716C65.2779 26.4716 66.1351 26.8682 66.8209 27.6622C67.5058 28.458 67.8496 29.5032 67.8496 30.7994ZM65.8793 30.8686C65.8793 30.0399 65.6888 29.3568 65.306 28.8182C64.8879 28.2584 64.3264 27.9781 63.6224 27.9781C63.1453 27.9781 62.7117 28.1342 62.3244 28.4421C61.9361 28.7526 61.6821 29.158 61.5633 29.6602C61.5102 29.848 61.4801 30.0413 61.4735 30.236V31.6564C61.4735 32.2748 61.6676 32.7973 62.0559 33.225C62.4441 33.6508 62.9485 33.8646 63.5689 33.8646C64.2973 33.8646 64.8643 33.5887 65.2697 33.0413C65.6761 32.4921 65.8793 31.7682 65.8793 30.8686V30.8686ZM77.8613 30.7994C77.8613 32.2473 77.4595 33.3918 76.6549 34.2319C75.9337 34.9798 75.0393 35.3534 73.9708 35.3534C72.8178 35.3534 71.9887 34.9515 71.4853 34.1459V38.6129H69.5513V29.4455C69.5513 28.5361 69.5268 27.6037 69.4796 26.6473H71.1805L71.2884 27.9967H71.3247C71.9688 26.98 72.9475 26.4716 74.2619 26.4716C75.2879 26.4716 76.1451 26.8682 76.8327 27.6622C77.5167 28.458 77.8613 29.5032 77.8613 30.7994V30.7994ZM75.8902 30.8686C75.8902 30.0399 75.6988 29.3568 75.316 28.8182C74.8978 28.2584 74.3381 27.9781 73.6342 27.9781C73.1571 27.9781 72.7235 28.1342 72.3343 28.4421C71.9461 28.7526 71.693 29.158 71.5742 29.6602C71.5152 29.8944 71.4835 30.0852 71.4835 30.236V31.6564C71.4835 32.2748 71.6785 32.7973 72.0649 33.225C72.4532 33.6499 72.9575 33.8646 73.5798 33.8646C74.3091 33.8646 74.8761 33.5887 75.2806 33.0413C75.687 32.4921 75.8902 31.7682 75.8902 30.8686V30.8686ZM89.0551 31.8489C89.0551 32.8541 88.6959 33.6712 87.982 34.302C87.1964 34.9905 86.0997 35.3356 84.6937 35.3356C83.3947 35.3356 82.3534 35.0907 81.5678 34.6001L82.015 33.0236C82.8632 33.5151 83.7948 33.7599 84.8089 33.7599C85.5382 33.7599 86.1052 33.5985 86.5097 33.2782C86.9152 32.957 87.1202 32.5276 87.1202 31.9918C87.1202 31.5118 86.9506 31.1099 86.6177 30.7825C86.283 30.456 85.7296 30.1517 84.9522 29.8722C82.8387 29.1013 81.781 27.9736 81.781 26.4902C81.781 25.5214 82.1547 24.7282 82.9004 24.1081C83.646 23.4888 84.6348 23.1792 85.8648 23.1792C86.9633 23.1792 87.8786 23.3664 88.6052 23.7399L88.1199 25.2819C87.4359 24.9199 86.664 24.7389 85.8004 24.7389C85.1182 24.7389 84.583 24.903 84.2002 25.2295C83.8782 25.5214 83.7149 25.8772 83.7149 26.2995C83.7149 26.7653 83.9009 27.1521 84.271 27.4555C84.5921 27.735 85.1781 28.0393 86.0253 28.3658C87.0649 28.7757 87.8287 29.253 88.3176 29.8013C88.8102 30.3495 89.0551 31.0336 89.0551 31.8489ZM95.4657 28.0668H93.3339V32.2002C93.3339 33.2516 93.7095 33.7759 94.4624 33.7759C94.808 33.7759 95.0946 33.7475 95.3214 33.6881L95.3749 35.1245C94.994 35.2637 94.4923 35.3338 93.8709 35.3338C93.1072 35.3338 92.5103 35.1058 92.0794 34.6498C91.6503 34.1938 91.4345 33.4299 91.4345 32.3546V28.0632H90.1645V26.6437H91.4345V25.0849L93.3339 24.5242V26.6437H95.4657V28.0668V28.0668ZM105.065 30.834C105.065 32.1426 104.682 33.217 103.918 34.0572C103.119 34.9222 102.056 35.3534 100.731 35.3534C99.4515 35.3534 98.4346 34.939 97.6763 34.1113C96.9179 33.2817 96.5388 32.2366 96.5388 30.9759C96.5388 29.6566 96.9306 28.576 97.7117 27.7359C98.4945 26.8948 99.5486 26.4743 100.874 26.4743C102.151 26.4743 103.177 26.8895 103.953 27.7181C104.695 28.5219 105.065 29.5599 105.065 30.834ZM103.06 30.8774C103.06 30.0976 102.888 29.4286 102.542 28.8688C102.137 28.1928 101.556 27.8547 100.804 27.8547C100.029 27.8547 99.4352 28.1928 99.0306 28.8688C98.6841 29.4286 98.5117 30.1091 98.5117 30.9129C98.5117 31.6937 98.6841 32.3644 99.0306 32.9224C99.4488 33.5985 100.032 33.9365 100.788 33.9365C101.527 33.9365 102.107 33.5914 102.526 32.9056C102.881 32.3324 103.06 31.6591 103.06 30.8774ZM111.354 28.3108C111.153 28.2752 110.949 28.2577 110.744 28.2584C110.064 28.2584 109.538 28.5086 109.168 29.0125C108.846 29.4561 108.685 30.0168 108.685 30.6938V35.1608H106.751V29.3284C106.753 28.4347 106.734 27.541 106.695 26.6481H108.379L108.45 28.277H108.504C108.709 27.7172 109.03 27.2656 109.471 26.9276C109.874 26.6322 110.364 26.4723 110.868 26.4716C111.047 26.4716 111.209 26.484 111.352 26.5062L111.354 28.3108V28.3108ZM120.003 30.5013C120.008 30.7888 119.984 31.0761 119.932 31.3592H114.13C114.152 32.2002 114.433 32.8444 114.972 33.288C115.461 33.6836 116.093 33.8824 116.87 33.8824C117.729 33.8824 118.513 33.7493 119.217 33.4805L119.52 34.7926C118.697 35.144 117.724 35.3187 116.602 35.3187C115.252 35.3187 114.193 34.9302 113.422 34.1547C112.653 33.3784 112.267 32.3351 112.267 31.0283C112.267 29.7454 112.625 28.6763 113.343 27.8237C114.094 26.9134 115.109 26.4583 116.386 26.4583C117.641 26.4583 118.591 26.9134 119.236 27.8237C119.746 28.545 120.003 29.4393 120.003 30.5013V30.5013ZM118.159 30.0106C118.172 29.449 118.045 28.9655 117.783 28.5565C117.449 28.0295 116.933 27.7669 116.243 27.7669C115.611 27.7669 115.096 28.0233 114.704 28.5379C114.382 28.9469 114.19 29.4384 114.131 30.0089L118.159 30.0106Z" fill="black"/>
<path d="M50.2043 19.1794C49.6664 19.1794 49.2011 19.1537 48.8137 19.1102V13.402C49.3555 13.3201 49.9029 13.2798 50.4511 13.2813C52.6689 13.2813 53.6904 14.3486 53.6904 16.0884C53.6904 18.0953 52.4839 19.1794 50.2043 19.1794ZM50.5291 14.0133C50.2297 14.0133 49.9748 14.031 49.7635 14.0736V18.4129C49.8778 18.4307 50.0973 18.4386 50.4057 18.4386C51.8589 18.4386 52.6862 17.6295 52.6862 16.1142C52.6862 14.763 51.9378 14.0133 50.5291 14.0133V14.0133ZM56.8734 19.2229C55.6234 19.2229 54.8134 18.31 54.8134 17.0706C54.8134 15.7788 55.6406 14.8579 56.9442 14.8579C58.176 14.8579 59.0042 15.7273 59.0042 17.0023C59.0042 18.31 58.1506 19.2229 56.8734 19.2229ZM56.9097 15.5375C56.223 15.5375 55.7831 16.1656 55.7831 17.044C55.7831 17.9054 56.2321 18.5336 56.9006 18.5336C57.5692 18.5336 58.0182 17.862 58.0182 17.0262C58.0182 16.1745 57.5782 15.5375 56.9097 15.5375ZM66.1323 14.944L64.7943 19.128H63.9226L63.3683 17.311C63.2305 16.8666 63.1158 16.4156 63.0245 15.9598H63.0064C62.9365 16.4158 62.8041 16.8727 62.6635 17.311L62.0739 19.128H61.1931L59.934 14.944H60.911L61.3954 16.9331C61.5097 17.4068 61.6058 17.854 61.6856 18.2763H61.7038C61.7736 17.9241 61.8879 17.484 62.0557 16.9419L62.6635 14.9448H63.4382L64.0196 16.8993C64.1602 17.3731 64.2745 17.838 64.3634 18.2772H64.3888C64.4505 17.8469 64.5476 17.39 64.6791 16.8993L65.1989 14.9448L66.1323 14.944V14.944ZM71.0579 19.128H70.1072V16.7255C70.1072 15.9855 69.817 15.6147 69.2446 15.6147C68.6813 15.6147 68.2939 16.0884 68.2939 16.6394V19.128H67.3433V16.1399C67.3433 15.7699 67.3342 15.3734 67.3079 14.9431H68.1443L68.1887 15.5889H68.215C68.4708 15.1418 68.9897 14.8579 69.5711 14.8579C70.4692 14.8579 71.0588 15.5295 71.0588 16.6225L71.0579 19.128V19.128ZM73.6794 19.128H72.7279V13.024H73.6794V19.128ZM77.1455 19.2229C75.8964 19.2229 75.0855 18.31 75.0855 17.0706C75.0855 15.7788 75.9128 14.8579 77.2154 14.8579C78.4481 14.8579 79.2754 15.7273 79.2754 17.0023C79.2763 18.31 78.4218 19.2229 77.1455 19.2229ZM77.1809 15.5375C76.4942 15.5375 76.0543 16.1656 76.0543 17.044C76.0543 17.9054 76.5042 18.5336 77.1709 18.5336C77.8404 18.5336 78.2885 17.862 78.2885 17.0262C78.2894 16.1745 77.8503 15.5375 77.1809 15.5375V15.5375ZM83.0236 19.128L82.9547 18.6462H82.9293C82.639 19.0339 82.2154 19.2229 81.6783 19.2229C80.9118 19.2229 80.3676 18.6977 80.3676 17.9915C80.3676 16.9588 81.2829 16.4247 82.8676 16.4247V16.3475C82.8676 15.7966 82.5691 15.5206 81.9795 15.5206C81.5577 15.5206 81.1876 15.6244 80.862 15.8312L80.6687 15.2199C81.0642 14.9786 81.5577 14.8579 82.1374 14.8579C83.2549 14.8579 83.8191 15.4346 83.8191 16.5888V18.1299C83.8191 18.5522 83.8382 18.8796 83.8808 19.1289L83.0236 19.128V19.128ZM82.893 17.044C81.8371 17.044 81.3073 17.2941 81.3073 17.8877C81.3073 18.3268 81.5804 18.5416 81.9596 18.5416C82.443 18.5416 82.893 18.1805 82.893 17.6898V17.044V17.044ZM88.4354 19.128L88.391 18.4564H88.3647C88.0916 18.9639 87.6326 19.2229 86.9913 19.2229C85.9599 19.2229 85.1961 18.3357 85.1961 17.0874C85.1961 15.7788 85.988 14.857 87.0693 14.857C87.6417 14.857 88.0472 15.046 88.2758 15.4257H88.2948V13.024H89.2464V18.0004C89.2464 18.4049 89.2564 18.7838 89.2818 19.128H88.4354ZM88.2948 16.666C88.2948 16.0805 87.8984 15.581 87.2934 15.581C86.5885 15.581 86.1577 16.1922 86.1577 17.0528C86.1577 17.8966 86.6049 18.4741 87.2743 18.4741C87.8721 18.4741 88.2948 17.9658 88.2948 17.3633V16.666ZM95.2796 19.2229C94.0305 19.2229 93.2204 18.31 93.2204 17.0706C93.2204 15.7788 94.0477 14.8579 95.3503 14.8579C96.5831 14.8579 97.4104 15.7273 97.4104 17.0023C97.4113 18.31 96.5577 19.2229 95.2796 19.2229ZM95.315 15.5375C94.6292 15.5375 94.1892 16.1656 94.1892 17.044C94.1892 17.9054 94.6382 18.5336 95.3059 18.5336C95.9753 18.5336 96.4234 17.862 96.4234 17.0262C96.4253 16.1745 95.9853 15.5375 95.315 15.5375ZM102.523 19.128H101.571V16.7255C101.571 15.9855 101.281 15.6147 100.709 15.6147C100.145 15.6147 99.7589 16.0884 99.7589 16.6394V19.128H98.8073V16.1399C98.8073 15.7699 98.7983 15.3734 98.7719 14.9431H99.6083L99.6528 15.5889H99.6791C99.934 15.1418 100.454 14.857 101.034 14.857C101.932 14.857 102.523 15.5286 102.523 16.6216V19.128ZM108.919 15.6413H107.873V17.673C107.873 18.1902 108.056 18.4484 108.426 18.4484C108.594 18.4484 108.735 18.4307 108.848 18.4049L108.874 19.1111C108.69 19.1803 108.444 19.2149 108.137 19.2149C107.388 19.2149 106.94 18.8104 106.94 17.7511V15.6413H106.315V14.944H106.94V14.1774L107.873 13.9015V14.9431H108.919V15.6413V15.6413ZM113.952 19.128H113.002V16.7432C113.002 15.9944 112.712 15.6156 112.139 15.6156C111.647 15.6156 111.188 15.9429 111.188 16.6057V19.128H110.238V13.024H111.188V15.5375H111.207C111.506 15.0815 111.94 14.857 112.493 14.857C113.398 14.857 113.952 15.5455 113.952 16.6394V19.128V19.128ZM119.108 17.2595H116.255C116.273 18.0518 116.809 18.499 117.603 18.499C118.024 18.499 118.413 18.4298 118.756 18.3011L118.903 18.947C118.499 19.1191 118.023 19.2052 117.468 19.2052C116.13 19.2052 115.339 18.3783 115.339 17.0963C115.339 15.8134 116.149 14.849 117.361 14.849C118.454 14.849 119.14 15.6413 119.14 16.8381C119.146 16.9794 119.135 17.1208 119.108 17.2595V17.2595ZM118.236 16.5968C118.236 15.9509 117.903 15.4949 117.295 15.4949C116.749 15.4949 116.317 15.9598 116.256 16.5968H118.236V16.5968Z" fill="black"/>
<defs>
<filter id="filter0_dd_1_32" x="0.000137329" y="0" width="140.774" height="53.8982" filterUnits="userSpaceOnUse" color-interpolation-filters="sRGB">
<feFlood flood-opacity="0" result="BackgroundImageFix"/>
<feColorMatrix in="SourceAlpha" type="matrix" values="0 0 0 0 0 0 0 0 0 0 0 0 0 0 0 0 0 0 127 0" result="hardAlpha"/>
<feOffset dy="2"/>
<feGaussianBlur stdDeviation="2.5"/>
<feColorMatrix type="matrix" values="0 0 0 0 0 0 0 0 0 0 0 0 0 0 0 0 0 0 0.16 0"/>
<feBlend mode="normal" in2="BackgroundImageFix" result="effect1_dropShadow_1_32"/>
<feColorMatrix in="SourceAlpha" type="matrix" values="0 0 0 0 0 0 0 0 0 0 0 0 0 0 0 0 0 0 127 0" result="hardAlpha"/>
<feOffset dy="2"/>
<feGaussianBlur stdDeviation="5"/>
<feColorMatrix type="matrix" values="0 0 0 0 0 0 0 0 0 0 0 0 0 0 0 0 0 0 0.12 0"/>
<feBlend mode="normal" in2="effect1_dropShadow_1_32" result="effect2_dropShadow_1_32"/>
<feBlend mode="normal" in="SourceGraphic" in2="effect2_dropShadow_1_32" result="shape"/>
</filter>
</defs>
</svg>
