<svg xmlns="http://www.w3.org/2000/svg" width="341.354" height="115.036" viewBox="0 0 341.354 115.036">
  <g id="Rubik_Care_" data-name="Rubik Care " transform="translate(-7943.883 -6723.839)">
    <g id="Group_3238" data-name="Group 3238" transform="translate(37.3 12.57)">
      <path id="Path_27" data-name="Path 27" d="M867.87,186.041a.831.831,0,0,1-.813.37H847.31a.837.837,0,0,0-.137.566v1.256a9.506,9.506,0,0,1,.1,1.4c.2.239,0,.55.162.82a4.582,4.582,0,0,1,.126.793,12.792,12.792,0,0,0,.425,1.31,8.913,8.913,0,0,0,.5,1.1,10.129,10.129,0,0,0,.778,1.2,8.615,8.615,0,0,0,.922,1.011,6.141,6.141,0,0,0,1.2.868,6.847,6.847,0,0,0,1.8.772c.347.1.694.173,1.011.246a7.179,7.179,0,0,0,1.461.191h1.489a2.049,2.049,0,0,0,.629-.042c.21-.072.5.042.669-.066s.443.036.6-.168a5.681,5.681,0,0,0,1.974-.6,9.5,9.5,0,0,0,1.574-.906,14.341,14.341,0,0,0,2.094-1.908c.089-.089.1-.227.245-.3a.694.694,0,0,1,.749.054l.066.066,1.31,1.2a1.3,1.3,0,0,1,.2.2.556.556,0,0,1,0,.694c-.192.233-.394.461-.6.689s-.275.347-.432.521a15.8,15.8,0,0,1-2.309,1.843c-.39.27-1.616.808-2.152,1.077a17.431,17.431,0,0,1-1.885.6,3.525,3.525,0,0,1-.747.113,3.275,3.275,0,0,0-.472.089,1.08,1.08,0,0,0-.479.084c-.1.06-.275,0-.412,0-.64-.029-1.274.168-1.915.1a8.029,8.029,0,0,0-1.5-.089c-.191-.131-.412-.054-.6-.1s-.377-.06-.566-.1a8.409,8.409,0,0,1-.88-.227,10.921,10.921,0,0,1-1.6-.527c-.437-.173-.838-.453-1.263-.658a4.688,4.688,0,0,1-.987-.647,10.163,10.163,0,0,1-1.5-1.442c-.372-.467-.687-.951-1.035-1.436a8.883,8.883,0,0,1-.76-1.46,7.278,7.278,0,0,1-.425-1.125,6.794,6.794,0,0,1-.347-1.3c-.168-.144-.054-.365-.173-.538s0-.365-.089-.566,0-.413-.113-.6c.036-.43-.168-.838-.1-1.263a25.736,25.736,0,0,1-.1-3.268,1.865,1.865,0,0,0-.048-.215c0-.071-.06-.149-.042-.209a11.538,11.538,0,0,0,.09-2.2,2.4,2.4,0,0,0,0-.281c-.042-.6.162-1.148.1-1.729.126-.21.042-.453.113-.658s.031-.453.089-.658c.155-.6.264-1.2.419-1.8a12.9,12.9,0,0,1,.688-1.9,14.393,14.393,0,0,1,1.125-1.956q.529-.618,1.047-1.246a13.423,13.423,0,0,1,2.125-1.609,18.03,18.03,0,0,1,2.393-1.1,6.236,6.236,0,0,0,1.035-.21c.425-.054.855-.113,1.268-.186a15.051,15.051,0,0,1,2.34-.071,5.488,5.488,0,0,1,1.262.1c.209.042.461,0,.6.1s.377,0,.557.131.4.078.6.131a8.119,8.119,0,0,1,.946.317c.431.186.855.407,1.28.6a10,10,0,0,1,1.646,1.083,10.41,10.41,0,0,1,1.133,1.065,8.767,8.767,0,0,1,1.382,1.933c.113.21.227.407.347.6a10.18,10.18,0,0,1,.747,1.879,4.916,4.916,0,0,1,.3,1.035c.168.162-.029.43.168.6a14.339,14.339,0,0,0,.2,1.549c.053.509.048,1.059.078,1.591,0,.042.06.078.091.12Zm-3.525-2.6c.029-.2.048-.377.084-.545.071-.347-.131-.652-.1-.988a15.718,15.718,0,0,0-.1-1.591v-.048c-.144-.215-.09-.485-.18-.718s-.1-.485-.2-.694c-.162-.347-.2-.724-.383-1.053a12.5,12.5,0,0,0-1.2-1.945,6.927,6.927,0,0,0-1.932-1.628,7.773,7.773,0,0,0-1.873-.772,8.965,8.965,0,0,0-2.039-.33,7.183,7.183,0,0,0-2.012.071,5.822,5.822,0,0,1-.658.084,7.389,7.389,0,0,0-1.861.6c-.239.113-.461.251-.687.347a5.248,5.248,0,0,0-1.119.778,8.083,8.083,0,0,0-.6.6,5.991,5.991,0,0,0-.987,1.407,11.074,11.074,0,0,0-.928,2.357,2.294,2.294,0,0,0-.1.288c-.054.347-.1.664-.173.993a3.508,3.508,0,0,0,0,.652c0,.227-.078.437-.089.658v.975c0,.5.036.5.521.5Z" transform="translate(7380.054 6596.562)" fill="#289cd7"/>
      <ellipse id="Ellipse_1" data-name="Ellipse 1" cx="1.058" cy="0.08" rx="1.058" ry="0.08" transform="translate(8020.271 6826.146)" fill="#b0bdcd"/>
      <path id="Path_28" data-name="Path 28" d="M386.5,141.741l.784-.778a7.093,7.093,0,0,1,1.359-.988,9.445,9.445,0,0,1,.831-.461,8.057,8.057,0,0,1,1.945-.694,4.294,4.294,0,0,1,1.406-.2,13.808,13.808,0,0,1,2.477-.1,1.951,1.951,0,0,1,.658.089c.21.06.437-.029.664.084a1.881,1.881,0,0,0,.6.089,5.909,5.909,0,0,1,1.2.3,9.028,9.028,0,0,1,1.508.6,10.384,10.384,0,0,1,1.616,1.035c.233.191.453.4.694.6a8.973,8.973,0,0,1,1.861,2.626,9.246,9.246,0,0,1,.718,1.843c.12.461.239.933.348,1.407a7.088,7.088,0,0,0,.257,1.334v.048c.029.467.084.933.084,1.4a8.445,8.445,0,0,1,.113.988,2.719,2.719,0,0,0,0,.97,5.479,5.479,0,0,1,.071,1.359v4.655c0,.347-.071.694-.084,1.035a5.882,5.882,0,0,1,0,1.019,10.782,10.782,0,0,0-.084,1.083,3.945,3.945,0,0,0-.084.754,3.157,3.157,0,0,1-.113.749,7.461,7.461,0,0,1-.162.906c-.078.281-.113.6-.2.849a14.6,14.6,0,0,1-.539,1.538,12.092,12.092,0,0,1-.514,1.133,7.906,7.906,0,0,1-1.066,1.562,6.935,6.935,0,0,1-.634.712,14.441,14.441,0,0,1-1.658,1.256,14.859,14.859,0,0,1-2.728,1.2c-.173.071-.371,0-.566.1s-.509.036-.742.113-.6,0-.891.1a3.368,3.368,0,0,1-.946.071h-.928a3.224,3.224,0,0,1-.754-.1c-.233-.042-.49.071-.707-.1a2.959,2.959,0,0,1-1.083-.2,8.628,8.628,0,0,1-1.232-.388,6.036,6.036,0,0,1-.975-.443,12.47,12.47,0,0,1-1.507-.986c-.467-.377-.856-.831-1.31-1.2h0v3.027H378.23V126.811h8.042a.215.215,0,0,1,.233.227v14.724Zm5.469,4.128h0a3.484,3.484,0,0,0-.419,0c-.144,0-.281.071-.425.084a5.478,5.478,0,0,0-.6.084,4.409,4.409,0,0,0-2.178,1.143,5.177,5.177,0,0,0-1.246,1.992,5.333,5.333,0,0,0-.3,1.2,3.05,3.05,0,0,0-.1.982.906.906,0,0,0-.084.6,3.865,3.865,0,0,1-.1.6c0,.3,0,.6,0,.928v.886a7.36,7.36,0,0,0-.1.891c.036.293.078.437.089.658.048.808-.048,1.615.078,2.393.078.527.113,1.065.191,1.6a9.391,9.391,0,0,0,.293,1.274,4.835,4.835,0,0,0,1.945,2.718,4.54,4.54,0,0,0,1.981.718c.281.036.6-.053.844.1a.227.227,0,0,0,.18,0,.6.6,0,0,1,.479-.089,4.226,4.226,0,0,0,1.861-.453,4.055,4.055,0,0,0,1.932-1.8,7.668,7.668,0,0,0,.6-1.382,6.2,6.2,0,0,0,.21-.933c.084-.479.138-.97.191-1.454.078-.664.084-1.34.1-2.01V155.1c.036-1.077-.054-2.152-.089-3.219v-.131c-.162-.155-.06-.347-.09-.527a2.249,2.249,0,0,1-.084-.521c0-.425-.227-.793-.21-1.2a5.556,5.556,0,0,0-1.748-2.668,4.594,4.594,0,0,0-1.287-.689,4.776,4.776,0,0,0-.946-.191Z" transform="translate(7684.828 6624.767)" fill="#0e648c"/>
      <path id="Path_29" data-name="Path 29" d="M535.915,171.781a7.4,7.4,0,0,0-.431-.793c-.245-.347-.412-.731-.64-1.083s-.437-.718-.652-1.083-.5-.754-.687-1.155-.453-.808-.689-1.2c-.394-.658-.753-1.34-1.2-1.974-.162-.233-.257-.514-.407-.76-.479-.793-.964-1.586-1.442-2.393-.155-.257-.281-.532-.43-.793-.383-.634-.766-1.263-1.15-1.9-.1-.155-.18-.323-.293-.532-.227.257-.5.388-.6.689,0,.036-.066.066-.1.1-.383.413-.778.82-1.15,1.246-.472.55-.928,1.119-1.448,1.628a.729.729,0,0,0-.186.6v9.412h-8.275V127.334c0-.5.029-.5.514-.5h7.725l.029.036a.068.068,0,0,1,0,.036V152.25c.383-.239.52-.652.838-.891.06-.281.323-.419.472-.634.306-.443.688-.82,1.035-1.256s.814-1,1.2-1.5.766-.993,1.2-1.466.838-1.077,1.257-1.615a7.364,7.364,0,0,1,.527-.6c.371-.43.724-.868,1.059-1.329a5.127,5.127,0,0,1,.521-.6q.557-.647,1.059-1.329c.168-.233.372-.437.557-.658.317-.383.64-.754.951-1.143a1.4,1.4,0,0,0,.126-.239h9.9a.782.782,0,0,1-.113.2c-.4.437-.82.862-1.2,1.316s-.916,1.035-1.383,1.573-.981,1.119-1.484,1.664-.939,1.071-1.412,1.6l-1.484,1.669c-.472.527-.939,1.071-1.412,1.6s-.957,1.1-1.454,1.633-.933,1.113-1.449,1.628a.461.461,0,0,0-.084.634c.233.347.461.706.694,1.065.34.6.778,1.119,1.09,1.729.168.323.425.6.6.906.347.566.736,1.083,1.059,1.657.186.33.425.6.6.951.347.566.736,1.083,1.053,1.657.186.347.432.6.6.951.347.566.742,1.083,1.053,1.657.18.347.437.6.6.951.347.566.731,1.083,1.053,1.657.233.419.538.8.793,1.2.347.6.766,1.1,1.077,1.7.168.323.419.6.6.915.347.6.773,1.09,1.065,1.7a3.56,3.56,0,0,0,.377.521.347.347,0,0,1,0,.066.032.032,0,0,1-.012.023.032.032,0,0,1-.025.007Z" transform="translate(7594.52 6624.748)" fill="#0e648c"/>
      <path id="Path_30" data-name="Path 30" d="M299.488,162.371h7.659a.227.227,0,0,1,.257.246V194.63a.215.215,0,0,1-.227.227h-7.42v-3.308a1.558,1.558,0,0,0-.227.15c-.3.293-.6.6-.891.886a8.018,8.018,0,0,1-1.682,1.2,9.236,9.236,0,0,1-2.632,1.059,7.289,7.289,0,0,1-1.932.275,4.077,4.077,0,0,1-1.359.089,2.61,2.61,0,0,1-.844-.078c-.27-.078-.6.071-.844-.1-.263.071-.5-.078-.754-.1a4.3,4.3,0,0,1-.712-.179,5.453,5.453,0,0,1-.748-.215,12.9,12.9,0,0,1-1.4-.658,10.52,10.52,0,0,1-1.274-.873,10.1,10.1,0,0,1-1.1-1.035,10.435,10.435,0,0,1-1.3-1.831,15.584,15.584,0,0,1-.754-1.651,6.54,6.54,0,0,1-.323-1.035,9.39,9.39,0,0,1-.3-1.418c0-.2-.066-.407-.084-.6s-.071-.437-.084-.658a3.676,3.676,0,0,0,0-.652,8.565,8.565,0,0,1-.078-2.107V162.371h7.91v20.01a1.43,1.43,0,0,0,.071.718c.1.186-.047.453.113.652a5.04,5.04,0,0,0,.708,1.984,2.837,2.837,0,0,0,.348.545,5.387,5.387,0,0,0,2.513,1.675,3.85,3.85,0,0,0,1.083.191c.227,0,.443.1.658.084a7.55,7.55,0,0,0,2.124-.365,4.878,4.878,0,0,0,1.2-.64,6.567,6.567,0,0,0,.6-.49,5,5,0,0,0,1.406-2.351,7.848,7.848,0,0,0,.227-1.2,29.591,29.591,0,0,0,.078-3.452V162.4Z" transform="translate(7748.89 6601.507)" fill="#0e648c"/>
      <path id="Path_31" data-name="Path 31" d="M642.205,141.143a1.8,1.8,0,0,1-.6.425c-.539.239-1.035.545-1.574.814a2.854,2.854,0,0,0-.323.113c-.251.162-.419,0-.566-.149a2.723,2.723,0,0,1-.3-.479,13.8,13.8,0,0,0-1.112-1.682,13.113,13.113,0,0,0-1.09-1.263,12.318,12.318,0,0,0-1.859-1.466,8.044,8.044,0,0,0-2.55-1.035c-.3-.071-.6-.12-.9-.191s-.671,0-.988-.1a7.484,7.484,0,0,0-2.07-.06,8.731,8.731,0,0,0-1.639.186,5.706,5.706,0,0,0-1.012.257c-.3.131-.64.168-.945.293a10.444,10.444,0,0,0-1.569.826,8.522,8.522,0,0,0-1.89,1.7A11.369,11.369,0,0,0,619.592,142c-.15.347-.263.671-.4,1s-.18.689-.347,1.019c.053.413-.173.772-.2,1.2a14.586,14.586,0,0,0-.173,1.46,1.439,1.439,0,0,0-.089.844c0,.365-.138.712-.113,1.083a3.789,3.789,0,0,1,0,1.065,11.989,11.989,0,0,0-.077,2.333v7.258c0,.347.072.689.084,1.035a5.849,5.849,0,0,0,0,1.019,7.649,7.649,0,0,1,.078,1.2c0,.173.073.347.089.521s-.036.365.1.521c-.066.3.1.6.1.891a2.059,2.059,0,0,0,.091.432,16.055,16.055,0,0,0,.425,1.591,15.017,15.017,0,0,0,.729,1.651,10.351,10.351,0,0,0,2.393,3.135,7.359,7.359,0,0,0,1.2.838,9.887,9.887,0,0,0,2.265.933,3.525,3.525,0,0,0,1.2.215c.226,0,.425.137.658.1a1.64,1.64,0,0,1,.6.071,6.752,6.752,0,0,0,.879,0c.629.053,1.246-.138,1.873-.1a9.2,9.2,0,0,1,1.154-.239c.348-.1.725-.2,1.077-.323a7.407,7.407,0,0,0,1.908-1c.324-.239.647-.479.951-.748a7.607,7.607,0,0,0,.742-.671c.389-.432.748-.886,1.1-1.352a15.533,15.533,0,0,0,.906-1.442c.138-.233.251-.5.545-.6a.257.257,0,0,1,.2,0c.55.186,1.035.509,1.556.729.144.06.275.155.419.227a2.186,2.186,0,0,1,.317.138,3.055,3.055,0,0,1,.3.293,1.193,1.193,0,0,1-.125.634,10.416,10.416,0,0,1-.552,1.077,12.6,12.6,0,0,1-1.1,1.688,12.157,12.157,0,0,1-1.383,1.556,12.686,12.686,0,0,1-2.214,1.622c-.288.162-.6.323-.873.467a16.693,16.693,0,0,1-1.879.748c-.4.137-.807.21-1.2.347a4.066,4.066,0,0,1-.749.113l-.514.089c-.173,0-.371-.06-.521.1h-.1c-.6-.066-1.246.1-1.868.1s-1.2-.126-1.8-.113a5.079,5.079,0,0,1-.694-.084,3.641,3.641,0,0,1-.658-.1,6.847,6.847,0,0,1-1.383-.347,4.612,4.612,0,0,1-1.382-.407,6.923,6.923,0,0,1-1.382-.6,12.742,12.742,0,0,1-1.352-.873,9.9,9.9,0,0,1-1.6-1.412,7.011,7.011,0,0,1-.928-1.2,14.661,14.661,0,0,1-1.669-2.794c-.215-.748-.6-1.424-.766-2.2a6.857,6.857,0,0,0-.347-1.246,3.2,3.2,0,0,1-.1-.748,4.108,4.108,0,0,0-.089-.472c-.018-.155.042-.347-.1-.479v-.062c.073-.461-.138-.906-.089-1.359a7.622,7.622,0,0,0-.1-1.077,4.573,4.573,0,0,0,0-1.113,5.847,5.847,0,0,1-.071-1.5c0-.906-.144-1.8-.113-2.71s0-1.831,0-2.741c0-1.2.138-2.333.091-3.5a12.019,12.019,0,0,0,.113-1.682c.066-.425,0-.856.1-1.263.053-.3.053-.6.084-.9a5.856,5.856,0,0,0,.1-.6c0-.186.071-.377.077-.566s.168-.388.1-.6c.251-.772.365-1.58.665-2.333s.6-1.412.957-2.124.729-1.2,1.1-1.8a4.681,4.681,0,0,1,.43-.521,10.506,10.506,0,0,1,1.15-1.246,11.942,11.942,0,0,1,2.152-1.549c.239-.131.472-.281.724-.394a16.076,16.076,0,0,1,2.22-.82c.461-.138.933-.186,1.382-.347a4.863,4.863,0,0,1,.933-.113c.227,0,.436-.071.658-.084a3.3,3.3,0,0,0,.694,0,4.871,4.871,0,0,1,1.359-.071c.251,0,.5.066.754.084a2.651,2.651,0,0,1,.778,0c.287.113.6,0,.874.15a4.9,4.9,0,0,0,.838.113c.6.144,1.133.317,1.693.5a11.541,11.541,0,0,1,3.59,1.908,12.931,12.931,0,0,1,1.466,1.287,12.728,12.728,0,0,1,1.46,1.867c.257.4.479.826.713,1.239.131.227.226.467.347.694a.988.988,0,0,1,.2.566Z" transform="translate(7530.12 6621.005)" fill="#289cd7"/>
      <path id="Path_32" data-name="Path 32" d="M705.685,173.169a7.393,7.393,0,0,1,1.8-1.382,12.572,12.572,0,0,1,2.807-1.2,7.394,7.394,0,0,1,1.232-.3c.4-.054.784-.131,1.2-.191a6.532,6.532,0,0,0,.9-.089,7.651,7.651,0,0,1,1.639-.078h1.675c.566,0,.993.1,1.5.113a7.174,7.174,0,0,1,1.2.179,11.746,11.746,0,0,1,1.8.453,10.964,10.964,0,0,1,1.484.694,6.164,6.164,0,0,1,1.729,1.507,4.19,4.19,0,0,1,.957,1.646c.042.162.2.288.18.485a2.536,2.536,0,0,1,.346,1.107,8.4,8.4,0,0,1,.227,1.2,6.457,6.457,0,0,0,.078.9,10.265,10.265,0,0,1,.078,2.244v19.352a2.374,2.374,0,0,1,0,.37.6.6,0,0,1-.6.453H723.8a.545.545,0,0,1-.6-.6v-3.237l-.566.862a5.22,5.22,0,0,1-1.2,1.329,9.122,9.122,0,0,1-.749.556,8.626,8.626,0,0,1-2.333,1.107,5.907,5.907,0,0,1-1.706.372c-.257.2-.6.06-.861.162a3.41,3.41,0,0,1-.922,0c-.226,0-.437.072-.658.084a5.274,5.274,0,0,1-.694,0,7.953,7.953,0,0,0-1.4-.089,1.15,1.15,0,0,0-.6-.1,2.389,2.389,0,0,1-.566-.1,14.113,14.113,0,0,1-1.73-.509c-.388-.186-.807-.3-1.2-.509a7.258,7.258,0,0,1-1.731-1.2c-.089-.089-.173-.186-.263-.264a5.908,5.908,0,0,1-1.454-2.047,8.056,8.056,0,0,1-.566-1.729,2.544,2.544,0,0,1-.1-.521c0-.191-.066-.377-.084-.566a2.2,2.2,0,0,1,0-.566c.035-.227-.113-.4-.1-.6a10.339,10.339,0,0,0,.1-1.591,8.947,8.947,0,0,0,.233-1.155,9.183,9.183,0,0,1,.33-1.077,8.131,8.131,0,0,1,.64-1.227,5.9,5.9,0,0,1,1.2-1.412,9.422,9.422,0,0,1,1.754-1.143c.634-.323,1.3-.521,1.95-.808.521,0,.993-.251,1.509-.3s.915-.113,1.382-.191,1.035,0,1.544-.078a38.639,38.639,0,0,1,4.248-.084h4.23c.347,0,.371-.042.371-.347v-4a3.776,3.776,0,0,0-.091-.6,1.974,1.974,0,0,0-.071-.6,2.088,2.088,0,0,1-.1-.652,3.226,3.226,0,0,0-.232-.838,4,4,0,0,0-1.108-1.682,3.251,3.251,0,0,0-1.412-.862,4.493,4.493,0,0,0-1.2-.453,2.67,2.67,0,0,0-.747-.113c-.227,0-.419-.137-.658-.113a.856.856,0,0,1-.6-.078h-2.832a4.713,4.713,0,0,0-.658.089c-.227.029-.461-.084-.658.089a1.725,1.725,0,0,0-.687.1,6.117,6.117,0,0,0-1.424.388c-.388.186-.807.3-1.2.514a8.6,8.6,0,0,0-1.611,1.059.742.742,0,0,1-.862.084.356.356,0,0,1-.1-.066c-.388-.566-.793-1.125-1.155-1.706a1.2,1.2,0,0,1-.132-.472ZM723.122,186.4h-6.39a18.258,18.258,0,0,0-3.111.084c-.251.042-.514-.053-.753.1a6.246,6.246,0,0,0-1.466.27,6.751,6.751,0,0,0-2.07.844,3.852,3.852,0,0,0-1.2,1.077,5.013,5.013,0,0,0-.957,2.909,1.245,1.245,0,0,1-.078.6c-.053.12.06.3.078.467a8.828,8.828,0,0,0,.078.9,4.547,4.547,0,0,0,.383,1.2,4.078,4.078,0,0,0,1.335,1.729,5.778,5.778,0,0,0,1.945,1.035,6.828,6.828,0,0,0,.671.186l.634.149c.209.054.479,0,.687.126.6-.071,1.15.113,1.73.089.209,0,.407-.078.6-.084a3.718,3.718,0,0,0,.922,0c.306-.1.634,0,.906-.168.365,0,.687-.21,1.035-.191a11.013,11.013,0,0,0,2.364-1.148,6.62,6.62,0,0,0,1.292-1.133,4.347,4.347,0,0,0,.669-.975,3.969,3.969,0,0,0,.556-1.633c.18-.144,0-.365.1-.514a1.063,1.063,0,0,0,.084-.6v-4.745a4.248,4.248,0,0,0-.043-.566Z" transform="translate(7471.623 6596.57)" fill="#289cd7"/>
      <path id="Path_33" data-name="Path 33" d="M481.339,194.664h-8.268v-32.8c.377-.071,6.7-.1,8.258-.029Z" transform="translate(7622.734 6601.88)" fill="#0e648c"/>
      <path id="Path_34" data-name="Path 34" d="M790.193,170.558h2.762a.862.862,0,0,1,.347.778v3.692c.089-.191.144-.281.186-.377A13.61,13.61,0,0,1,794.45,173c.4-.281.6-.724,1-1.035s.808-.652,1.246-.933a8.328,8.328,0,0,1,.963-.485,10.183,10.183,0,0,1,1.359-.43,3.85,3.85,0,0,1,.6-.113q.6-.073,1.262-.1h1.3a1.542,1.542,0,0,1,.6.084c.173.071.4-.078.566.1a5.237,5.237,0,0,1,1.8.485,7.233,7.233,0,0,1,1.729.906c.251.186.5.365.742.566a.539.539,0,0,1,.1.658c-.233.347-.479.67-.724,1s-.419.6-.6.862a.6.6,0,0,1-.766.21c-.275-.131-.532-.281-.8-.425a8.968,8.968,0,0,0-.993-.521,6.822,6.822,0,0,0-1.569-.5,4.737,4.737,0,0,1-.747-.089,3.415,3.415,0,0,0-1.2-.071,6.386,6.386,0,0,0-1.831.293,5.288,5.288,0,0,0-1.975,1.083c-.2.2-.443.347-.646.566a7.353,7.353,0,0,0-1.466,2.393,12.591,12.591,0,0,0-.653,2.107c-.042.173-.035.347-.089.521s-.042.347-.1.521c-.1.317,0,.64-.1.933a7.133,7.133,0,0,0-.078,1.73v16.423a.872.872,0,0,1-.084.527c-.042.06,0,.186-.1.233a.926.926,0,0,1-.347.137h-2.4a.55.55,0,0,1-.527-.545V171.372a.9.9,0,0,1,.251-.814Z" transform="translate(7415.252 6596.588)" fill="#289cd7"/>
      <path id="Path_35" data-name="Path 35" d="M473.09,126.259h8.048a.215.215,0,0,1,.227.233v6.324c0,.15-.084.21-.215.233a.793.793,0,0,1-.186,0h-7.881Z" transform="translate(7622.715 6625.078)" fill="#17658b"/>
      <path id="Path_36" data-name="Path 36" d="M326.312,312.684h-1.5a4.108,4.108,0,0,1-2.153-.73,2.261,2.261,0,0,1-1.072-1.131l.776-.669a.234.234,0,0,1,.361.061c.208.428.67.575.991.844a1.823,1.823,0,0,0,.87.322,2.6,2.6,0,0,0,1.626,0,2.146,2.146,0,0,0,.937-.208,2.517,2.517,0,0,0,1.338-1.091,3,3,0,0,0,.435-1.594c0-.328.081-.669.094-.977s0-.669,0-1.013v-.3a4.186,4.186,0,0,0-.528.633,2.269,2.269,0,0,1-1.07.9,2.787,2.787,0,0,1-1.339.334h-1.013a3.251,3.251,0,0,1-1.9-.583,3.82,3.82,0,0,1-1.439-1.747,6.489,6.489,0,0,1-.281-.958,7.239,7.239,0,0,1-.228-2.153V301.47a9.058,9.058,0,0,1,.194-1.84,5.844,5.844,0,0,1,.556-1.592,3.765,3.765,0,0,1,1.1-1.252,4.117,4.117,0,0,1,1.2-.569,3.51,3.51,0,0,1,.669-.114,3.718,3.718,0,0,1,1.158,0,4.193,4.193,0,0,1,1.439.389,3.482,3.482,0,0,1,1.292,1.292,1.859,1.859,0,0,0,.167.2,2.737,2.737,0,0,1,.047-.321v-1.07c0-.228.087-.3.314-.308h.669a.253.253,0,0,1,.267.253,2.3,2.3,0,0,1,0,.32v11.376a5.353,5.353,0,0,1-.481,2.153A3.547,3.547,0,0,1,327.5,312.4a2.971,2.971,0,0,1-1.184.3Zm-3.861-10.58a13.044,13.044,0,0,0,.087,1.339,8.02,8.02,0,0,0,.341,1.58,2.6,2.6,0,0,0,.776,1.158,3.137,3.137,0,0,0,1.955.669,4.248,4.248,0,0,0,.769-.094,2.584,2.584,0,0,0,2.008-1.406,5.89,5.89,0,0,0,.469-1.412,4.55,4.55,0,0,0,0-.856c0-.267.087-.542.094-.809a4.461,4.461,0,0,0-.087-1.031c-.08-.436,0-.887-.106-1.339a3.674,3.674,0,0,0-.633-1.506,2.678,2.678,0,0,0-2.169-1.07h-.669a2.45,2.45,0,0,0-1.191.355,2.533,2.533,0,0,0-1.117,1.284,7.9,7.9,0,0,0-.522,2.248,7.007,7.007,0,0,0,0,.863Z" transform="translate(7695.766 6513.489)" fill="#17658b"/>
      <path id="Path_37" data-name="Path 37" d="M584.047,291.429H592.6v-7.461h1.425v16.1c0,.562,0,.6-.589.583h-.809v-7.8H584.06v7.454c0,.267-.073.342-.334.348h-1.037v-16.73h1.064c.227,0,.308.094.308.322v2.142Z" transform="translate(7535.165 6520.918)" fill="#1a658d"/>
      <path id="Path_38" data-name="Path 38" d="M141.209,300.662h-1.191c-.127-.234.04-.434.114-.616.308-.8.569-1.62.887-2.416.261-.669.388-1.339.669-2.008s.455-1.238.709-1.854.388-1.339.669-2.008.442-1.211.669-1.806.428-1.339.709-2.008.415-1.258.669-1.861.388-1.084.583-1.633c.053-.155.127-.308.194-.462h1.284a12.891,12.891,0,0,1,.536,1.439c.094.361.261.669.361,1.037a2.325,2.325,0,0,0,.388.964,22.041,22.041,0,0,0,.776,2.248c.234.633.408,1.292.669,1.908a4.508,4.508,0,0,1,.361,1.031c.067.367.261.669.355,1.037a4.139,4.139,0,0,0,.388.97,5.352,5.352,0,0,1,.355,1.031,7.944,7.944,0,0,0,.328.984c.147.314.214.669.388.97a6.84,6.84,0,0,1,.314.937c.22.669.455,1.278.669,1.914a.669.669,0,0,1,0,.208H152.5a4.437,4.437,0,0,1-.589,0,.428.428,0,0,1-.355-.334c-.334-1.037-.776-2.041-1.078-3.092-.094-.314-.253-.609-.388-.95h-7.22c-.061.141-.147.308-.214.475-.234.616-.462,1.238-.669,1.854-.134.388-.241.776-.388,1.125S141.527,300.435,141.209,300.662Zm2.169-5.7h6.357a.911.911,0,0,0,0-.267,16.436,16.436,0,0,1-.83-2.215c-.308-.85-.622-1.706-.9-2.576-.161-.481-.314-.977-.516-1.439a13.935,13.935,0,0,1-.536-1.492,8.9,8.9,0,0,0-.388-.85c-1.064,2.983-2.123,5.9-3.186,8.845Z" transform="translate(7807.049 6520.9)" fill="#17658b"/>
      <path id="Path_39" data-name="Path 39" d="M750.018,300.643h-.858a.261.261,0,0,1-.287-.287V284.5c0-.575,0-.6.589-.575h.669a1.141,1.141,0,0,1,.168.669v5.767c.234-.261.428-.489.633-.709a4.021,4.021,0,0,1,1.545-.9,4.363,4.363,0,0,1,1.861-.106c.281.141.562.033.85.167s.516.22.776.355A3.166,3.166,0,0,1,757.3,290.5a13.163,13.163,0,0,1,.507,1.292.075.075,0,0,1,0,.053,5.568,5.568,0,0,0,.108,1.131v7.362a.243.243,0,0,1-.067.188.252.252,0,0,1-.187.073h-.9a.228.228,0,0,1-.228-.241v-7.615a4.351,4.351,0,0,0-.342-1.411,2.1,2.1,0,0,0-.863-.97,2.209,2.209,0,0,0-.958-.388,6.312,6.312,0,0,0-1.084-.081,2.92,2.92,0,0,0-2.053.85,2.462,2.462,0,0,0-.669.856,3.028,3.028,0,0,0-.267,1.064v7.281C750.259,300.215,750.3,300.449,750.018,300.643Z" transform="translate(7433.079 6520.919)" fill="#1a658d"/>
      <path id="Path_40" data-name="Path 40" d="M367.815,305.359l.9.742a2.893,2.893,0,0,1-.937,1.084,3.455,3.455,0,0,1-1.024.622,10.286,10.286,0,0,1-1.231.389,7.094,7.094,0,0,1-2.1.067,4.218,4.218,0,0,1-1.934-.7,3.913,3.913,0,0,1-1.258-1.393,6.6,6.6,0,0,1-.669-2.089,10.63,10.63,0,0,1-.08-1.672,10.929,10.929,0,0,1,0-1.714c.041-.389.127-.776.181-1.158s.328-.669.334-1.037a5.166,5.166,0,0,1,1.458-1.68,5.322,5.322,0,0,1,1.453-.633,6.027,6.027,0,0,1,1.453-.127c.507,0,.964.214,1.466.22a7.254,7.254,0,0,1,1.452.9,4.594,4.594,0,0,1,1.013,1.338,5.412,5.412,0,0,1,.389,1.231,5.2,5.2,0,0,1,.087.77c0,.241.161.448.12.709a5.589,5.589,0,0,0,0,.8c0,.455,0,.462-.488.462h-7.18c-.455,0-.622.167-.461.569a1.919,1.919,0,0,1,.087.669,3.567,3.567,0,0,0,1.07,2.442,2.823,2.823,0,0,0,2.008.823h.909a3.265,3.265,0,0,0,2.234-.917Zm-3.728-3.927h3.092c.208,0,.314-.087.314-.253a4.447,4.447,0,0,0,0-.958,10.119,10.119,0,0,0-.287-1.051c-.053-.167-.181-.253-.234-.388a2.316,2.316,0,0,0-1.267-1.191,6.1,6.1,0,0,0-1.52-.334c-.241-.047-.428.127-.669.106a1.493,1.493,0,0,0-.6.114,3.125,3.125,0,0,0-1.545,1.158,2.313,2.313,0,0,0-.253.536,3.508,3.508,0,0,1-.187.562,1.4,1.4,0,0,0-.108.669,3.741,3.741,0,0,0-.114.6c0,.434,0,.455.448.455Z" transform="translate(7672.215 6513.494)" fill="#17658b"/>
      <path id="Path_41" data-name="Path 41" d="M897.766,305.324l.9.736a2.951,2.951,0,0,1-.93,1.091,3.523,3.523,0,0,1-1.064.669,8.92,8.92,0,0,1-1.191.367,7.256,7.256,0,0,1-2.1.067,4.169,4.169,0,0,1-1.934-.7,3.778,3.778,0,0,1-1.257-1.393,6.525,6.525,0,0,1-.67-2.087,10.56,10.56,0,0,1-.08-1.673,15.384,15.384,0,0,1,0-1.713,2.368,2.368,0,0,1,.12-.75c.108-.241,0-.5.175-.736s.108-.5.241-.669a4.631,4.631,0,0,1,1.443-1.692,6.66,6.66,0,0,1,1.339-.608,3.437,3.437,0,0,1,.742-.134,5.589,5.589,0,0,1,2.208.228,3.531,3.531,0,0,1,1.339.736,4.587,4.587,0,0,1,1.013,1.184,3.624,3.624,0,0,1,.536,1.6c.18.253,0,.555.12.809a4.918,4.918,0,0,1,.087,1.459c0,.389-.039.415-.428.415h-7.234c-.455,0-.623.167-.462.569a1.89,1.89,0,0,1,.087.669,3.782,3.782,0,0,0,1.064,2.45,3.454,3.454,0,0,0,1.339.709,2.012,2.012,0,0,0,.7.114h.8A3.3,3.3,0,0,0,897.141,306,6.3,6.3,0,0,1,897.766,305.324Zm-3.7-3.927H896.9a1.058,1.058,0,0,0,.316,0,.284.284,0,0,0,.22-.181,4.266,4.266,0,0,0-.033-1.267,5,5,0,0,0-.483-1.245,2.738,2.738,0,0,0-1.1-1.044,4.02,4.02,0,0,0-2.006-.422c-.127,0-.228.114-.388.108a2.235,2.235,0,0,0-1.339.5,3.446,3.446,0,0,0-.75.76,1.786,1.786,0,0,0-.28.576,3.137,3.137,0,0,1-.175.562c-.134.234,0,.461-.094.669a1.555,1.555,0,0,0-.093.669c0,.294.067.361.388.361Z" transform="translate(7346.837 6513.527)" fill="#17658b"/>
      <path id="Path_42" data-name="Path 42" d="M634.977,305.332l.9.736a2.913,2.913,0,0,1-.93,1.091,3.683,3.683,0,0,1-1.064.669,8.748,8.748,0,0,1-1.191.369,7.353,7.353,0,0,1-2.1.067,4.064,4.064,0,0,1-1.9-.669,3.774,3.774,0,0,1-1.306-1.426,6.964,6.964,0,0,1-.669-2.087,10.7,10.7,0,0,1-.08-1.673v-1.714a2.311,2.311,0,0,1,.127-.744c.108-.241,0-.507.175-.736s.106-.5.234-.669a4.627,4.627,0,0,1,1.445-1.693,4.831,4.831,0,0,1,1.339-.6,5.136,5.136,0,0,1,1.013-.161,5.625,5.625,0,0,1,1.933.241,3.429,3.429,0,0,1,1.339.736,4.316,4.316,0,0,1,1.158,1.492,3.293,3.293,0,0,1,.389,1.284c.241.334.066.73.188,1.1a3.686,3.686,0,0,1,0,1.158c0,.388-.047.415-.422.415h-7.228c-.455,0-.633.167-.469.569a1.772,1.772,0,0,1,.087.669,3.74,3.74,0,0,0,1.064,2.45,3.124,3.124,0,0,0,1.339.716,1.874,1.874,0,0,0,.334.108,3.443,3.443,0,0,0,.428,0h.75A3.278,3.278,0,0,0,634.324,306,8.289,8.289,0,0,1,634.977,305.332Zm-3.694-3.927h2.83a1.114,1.114,0,0,0,.322,0,.3.3,0,0,0,.228-.173,4.3,4.3,0,0,0,0-1.267,5.243,5.243,0,0,0-.489-1.238,2.627,2.627,0,0,0-1.091-1.044,4.066,4.066,0,0,0-2.008-.441c-.134,0-.261.1-.388.1a2.42,2.42,0,0,0-1.338.507,3.747,3.747,0,0,0-.77.8,2.06,2.06,0,0,0-.275.529,2.364,2.364,0,0,1-.167.562c-.108.147,0,.455-.106.669a1.648,1.648,0,0,0-.1.6c0,.389.053.422.428.422Z" transform="translate(7508.196 6513.52)" fill="#17658b"/>
      <path id="Path_43" data-name="Path 43" d="M671.083,306.583a3.151,3.151,0,0,1-1,1,2.914,2.914,0,0,1-1.484.542c-.107,0-.221.094-.334.094H666.6c-.181-.181-.428-.067-.669-.134a8.555,8.555,0,0,1-.83-.328,3.047,3.047,0,0,1-.744-.516,3.255,3.255,0,0,1-.534-.736c-.134-.214-.094-.5-.275-.669a5.246,5.246,0,0,1-.1-1.339,5.053,5.053,0,0,1,.389-1.439,2.872,2.872,0,0,1,1.057-1.044,4.39,4.39,0,0,1,1.5-.535,6.959,6.959,0,0,1,1.111-.073h3.266a.253.253,0,0,0,.294-.281,16.944,16.944,0,0,0,0-1.767,2.049,2.049,0,0,0-.711-1.52,2.152,2.152,0,0,0-.569-.308,2.772,2.772,0,0,0-1.1-.2l-.294-.053c-.187,0-.422-.106-.562,0a.95.95,0,0,1-.556.087,3.188,3.188,0,0,0-1.934.669.958.958,0,0,1-.669.208l-.388-.6c-.141-.208-.134-.328.041-.442a8.6,8.6,0,0,1,1.07-.633,5.249,5.249,0,0,1,1.14-.348,8.726,8.726,0,0,1,1.184-.114,5.443,5.443,0,0,1,1.225,0,8.339,8.339,0,0,1,1.2.194,2.809,2.809,0,0,1,2.1,2.469,16.2,16.2,0,0,1,.081,2.208v6.526a1.335,1.335,0,0,1,0,.389.321.321,0,0,1-.208.194,5.809,5.809,0,0,1-.856,0c-.161,0-.22-.141-.214-.3A10.567,10.567,0,0,0,671.083,306.583Zm0-4.136h-2.108a9.418,9.418,0,0,0-2.048.086,3.233,3.233,0,0,0-.669.134c-.408.208-.87.314-1.111.8a2.9,2.9,0,0,0-.388,1.5,2.7,2.7,0,0,0,.127.536,1.872,1.872,0,0,0,.936,1.14,4.558,4.558,0,0,0,1.338.389,4.688,4.688,0,0,0,2.008-.2,2.848,2.848,0,0,0,1.545-1.064,1.724,1.724,0,0,0,.388-.909C671.1,304.067,671.083,303.264,671.083,302.447Z" transform="translate(7485.585 6513.546)" fill="#17658b"/>
      <path id="Path_44" data-name="Path 44" d="M252.624,306.721a3.44,3.44,0,0,1-1.853,1.439,3.674,3.674,0,0,1-1.191.22h-1.124c-.108,0-.261.047-.314,0-.194-.208-.461-.033-.669-.167s-.542-.153-.77-.281a2.8,2.8,0,0,1-.776-.569,4.811,4.811,0,0,1-.522-.742,3.128,3.128,0,0,1-.234-.863,3.78,3.78,0,0,1-.108-.489,1.55,1.55,0,0,1,0-.481,4.453,4.453,0,0,1,.414-1.592,2.922,2.922,0,0,1,1.013-1.013,3.089,3.089,0,0,1,1.545-.536,1.632,1.632,0,0,1,.917-.106h3.412a.261.261,0,0,0,.281-.294,16.833,16.833,0,0,0,0-1.767,2.008,2.008,0,0,0-.77-1.545,1.428,1.428,0,0,0-.428-.262,3.061,3.061,0,0,0-1.251-.227,2.871,2.871,0,0,1-.288-.067c-.194,0-.422-.094-.562,0a.814.814,0,0,1-.507.08,3.257,3.257,0,0,0-1.975.669.958.958,0,0,1-.616.2c-.141-.208-.267-.416-.428-.616a.267.267,0,0,1,.067-.442,5.5,5.5,0,0,1,1.686-.83c.281-.06.569-.106.844-.167a10.6,10.6,0,0,1,1.887-.086.557.557,0,0,1,.267,0c.389.161.809.087,1.191.214.187.06.334.234.555.208a3.225,3.225,0,0,1,1.339,1.626c.053.174.067.361.114.542a9.359,9.359,0,0,1,.1,2.208v6.639a.877.877,0,0,1,0,.314c-.04.094-.141.22-.228.234a5.09,5.09,0,0,1-.8,0,.241.241,0,0,1-.253-.269A11.192,11.192,0,0,0,252.624,306.721Zm0-4.129H248.95a3.2,3.2,0,0,0-1.14.208,2.28,2.28,0,0,0-1.013.669,2.677,2.677,0,0,0-.481,1.339,2.423,2.423,0,0,0,.234,1.14,1.5,1.5,0,0,0,.616.736,4.55,4.55,0,0,0,1.545.516,4,4,0,0,0,1.013,0,3.175,3.175,0,0,0,.669-.12,3.948,3.948,0,0,0,.669-.194,3.39,3.39,0,0,0,.964-.77,2.008,2.008,0,0,0,.569-1.339Z" transform="translate(7742.499 6513.397)" fill="#17658b"/>
      <path id="Path_45" data-name="Path 45" d="M463.525,302.161v.469a8.682,8.682,0,0,1-.194,1.934,5.55,5.55,0,0,1-.542,1.545,3.781,3.781,0,0,1-1.953,1.82,5.305,5.305,0,0,1-1.013.294,5.763,5.763,0,0,1-1.887.061,4.2,4.2,0,0,1-2.008-.75,1.822,1.822,0,0,1-.516-.422,6.394,6.394,0,0,1-.844-1.251,10.266,10.266,0,0,1-.516-1.934,16.817,16.817,0,0,1-.073-2.637,7.137,7.137,0,0,1,.576-2.676,4.053,4.053,0,0,1,3.139-2.456,5.889,5.889,0,0,1,1.339-.087,4.586,4.586,0,0,1,3.011,1.267,6.126,6.126,0,0,1,1.117,1.787c0,.428.267.809.214,1.245a6.014,6.014,0,0,1,.147,1.794Zm-1.267.094-.127-1.814v-.053c-.261-.622-.274-1.339-.844-1.847-.389-.742-1.178-.87-1.873-1.14a6.112,6.112,0,0,0-1.9.194,3.006,3.006,0,0,0-1.82,1.813,10.39,10.39,0,0,0-.416,2.342,3.926,3.926,0,0,0,0,.856,7.266,7.266,0,0,1,.094.809,4.012,4.012,0,0,0,.228,1.339,3.21,3.21,0,0,0,.669,1.278,2.817,2.817,0,0,0,2.262,1h.669a2.757,2.757,0,0,0,1.7-.669,3.849,3.849,0,0,0,1.191-2.389,13.928,13.928,0,0,0,.153-1.72Z" transform="translate(7614.193 6513.452)" fill="#17658b"/>
      <path id="Path_46" data-name="Path 46" d="M285.273,296.333a.6.6,0,0,1,.288.633v.909c.2-.234.348-.428.516-.609a3.564,3.564,0,0,1,1.586-.958,5.713,5.713,0,0,1,.83-.181,7.163,7.163,0,0,1,.911,0,4.587,4.587,0,0,1,.864.133,2.951,2.951,0,0,1,1.3.589,3.722,3.722,0,0,1,1.4,2.256c.047.234.053.475.094.7a13.443,13.443,0,0,1,.094,2.583v5.461a.241.241,0,0,1-.253.267,6.508,6.508,0,0,1-.909,0c-.087,0-.194-.134-.228-.228a1.1,1.1,0,0,1,0-.389v-7.12a3.064,3.064,0,0,0-1.14-2.462,2.77,2.77,0,0,0-.9-.408,4.294,4.294,0,0,0-1.506-.108,3.609,3.609,0,0,0-1.659.77,2.806,2.806,0,0,0-.73.93,2.969,2.969,0,0,0-.274,1.117v7.22a4.5,4.5,0,0,1-.087.669h-1.013c-.22,0-.294-.094-.3-.322v-11.2a.254.254,0,0,1,.067-.187.241.241,0,0,1,.188-.073C284.692,296.327,284.979,296.333,285.273,296.333Z" transform="translate(7718.451 6513.45)" fill="#1a658d"/>
      <path id="Path_47" data-name="Path 47" d="M499.974,296.942l.267-.274h.864a.253.253,0,0,1,.261.261v11.185c0,.253-.081.328-.348.328h-.887c-.267-.475-.087-.984-.181-1.506a4.3,4.3,0,0,1-.481.669,4.259,4.259,0,0,1-1.339.844,4.846,4.846,0,0,1-1.894.208,3.568,3.568,0,0,1-2.678-1.158,3.236,3.236,0,0,1-.85-1.787c-.067-.469-.181-.937-.2-1.412s0-.964,0-1.445V297.28c0-.267,0-.5.355-.633h.776a.242.242,0,0,1,.187.074.236.236,0,0,1,.067.187v7.454a4.257,4.257,0,0,0,.22,1.251,2.584,2.584,0,0,0,1.545,1.626,2.306,2.306,0,0,0,.76.127h.669a3.115,3.115,0,0,0,1.694-.555,3.22,3.22,0,0,0,1.078-1.433,1.783,1.783,0,0,0,.114-.8Q499.975,300.774,499.974,296.942Z" transform="translate(7590.571 6513.109)" fill="#1a658d"/>
      <path id="Path_48" data-name="Path 48" d="M414.377,284h1.339c.041.087.08.181.127.261.507.817.917,1.686,1.339,2.533.341.669.669,1.339,1.031,2.008s.742,1.439,1.14,2.153l.716,1.292q.07-.12.141-.261c.322-.633.6-1.292.97-1.9.669-1.05,1.111-2.181,1.7-3.259.415-.77.776-1.545,1.191-2.336a3.142,3.142,0,0,1,.322-.455h1.419c-.288.583-.549,1.131-.83,1.673-.507.984-1.037,1.961-1.545,2.944-.389.736-.723,1.492-1.158,2.2-.481.816-.83,1.7-1.339,2.5a1.738,1.738,0,0,0-.241.977v6.117a.253.253,0,0,1-.073.208.26.26,0,0,1-.208.074h-1.1v-6.37a1.542,1.542,0,0,0-.208-.83c-.322-.536-.583-1.111-.87-1.667-.462-.9-.9-1.806-1.393-2.676-.389-.669-.669-1.431-1.091-2.114s-.817-1.592-1.252-2.375C414.437,284.442,414.189,284.267,414.377,284Z" transform="translate(7638.557 6520.885)" fill="#1a658d"/>
      <path id="Path_49" data-name="Path 49" d="M808.78,283.927h1.078a.257.257,0,0,1,.294.275v14.575c0,.208-.08.434.167.583h7.91a1.344,1.344,0,0,1,.388,0,.261.261,0,0,1,.208.187,6.263,6.263,0,0,1,0,.856.228.228,0,0,1-.234.228h-9.81Z" transform="translate(7396.32 6520.932)" fill="#1a658d"/>
      <path id="Path_50" data-name="Path 50" d="M865.311,290.019H863.9a6.843,6.843,0,0,1,0-.837c0-.267.073-.341.334-.341h1.245V286.76a2.189,2.189,0,0,1,.114-.542c.041-.167-.047-.334.067-.507s.067-.369.155-.522A2.045,2.045,0,0,1,867,284.132a3.916,3.916,0,0,1,1.339-.22h1.291v1.14a1.036,1.036,0,0,1-.616.155h-.964a1.211,1.211,0,0,0-1.13.743s-.055.06-.055.08a3.786,3.786,0,0,1-.108.809v2h2.315c.556,0,.609,0,.589.583v.6h-2.342a.848.848,0,0,0-.314,0,.369.369,0,0,0-.194.214,1.426,1.426,0,0,0,0,.389v9.746a.239.239,0,0,1-.059.194.243.243,0,0,1-.187.073,4.99,4.99,0,0,1-.8,0c-.087,0-.187-.134-.228-.234a1.243,1.243,0,0,1,0-.388v-9.475C865.472,290.347,865.538,290.141,865.311,290.019Z" transform="translate(7362.515 6520.949)" fill="#17658b"/>
      <path id="Path_51" data-name="Path 51" d="M720.877,291.9v-.9a.254.254,0,0,1,.081-.208.262.262,0,0,1,.214-.073h1.3v-3.42c0-.234.081-.314.3-.322h.909c.22.181.174.428.174.669v3.092H726.1c.234,0,.32.087.328.3v.863h-2.57v7.923a2.462,2.462,0,0,0,.161.669,1.064,1.064,0,0,0,.911.669,4.04,4.04,0,0,0,1.184.127c.289,0,.348.061.355.389v.669c0,.214-.1.275-.253.261-.388-.047-.809.134-1.191-.094-.067-.041-.174,0-.267,0a2.477,2.477,0,0,1-1.393-.507c-.361-.214-.469-.669-.633-1.013a2.608,2.608,0,0,1-.114-.542,14.879,14.879,0,0,1-.106-2.844v-5.2c0-.507,0-.507-.488-.507h-1.116Z" transform="translate(7450.33 6519.058)" fill="#1a658d"/>
      <path id="Path_52" data-name="Path 52" d="M188.128,308.118h-1c-.214,0-.294-.094-.3-.328V296.662c0-.234.087-.322.3-.328s.428,0,.669,0a.441.441,0,0,1,.448.455c0,.389,0,.744,0,1.131a4.018,4.018,0,0,1,.937-1.1,2.406,2.406,0,0,1,1.251-.6,4.878,4.878,0,0,1,1.031-.094,3.822,3.822,0,0,1,1.934.542,1.613,1.613,0,0,1,.314.274c.147.134.134.253,0,.388a5.06,5.06,0,0,0-.348.548c-.12.161-.208.194-.435.087s-.434-.241-.669-.334a2.483,2.483,0,0,0-.97-.234,3.309,3.309,0,0,0-1.084.094,2.677,2.677,0,0,0-1.659,1.633,6.023,6.023,0,0,0-.328,1.9q0,3.2,0,6.418a4.6,4.6,0,0,1-.094.683Z" transform="translate(7778.224 6513.45)" fill="#1a658d"/>
      <path id="Path_53" data-name="Path 53" d="M533.235,296.282l.275.267v1.339a4.3,4.3,0,0,1,1.125-1.238,2.013,2.013,0,0,1,.887-.428,4.316,4.316,0,0,1,1.545-.114,4.225,4.225,0,0,1,1.592.536,1.921,1.921,0,0,1,.348.314.234.234,0,0,1,0,.328c-.134.194-.253.388-.388.589s-.208.188-.442.08-.434-.253-.669-.334a2.671,2.671,0,0,0-.923-.234,3.083,3.083,0,0,0-1.184.108,2.636,2.636,0,0,0-1.6,1.633,5.57,5.57,0,0,0-.328,1.9v6.418a.957.957,0,0,1-.16.669h-.953a.261.261,0,0,1-.287-.281V296.6a.243.243,0,0,1,.067-.189.24.24,0,0,1,.188-.072A3.682,3.682,0,0,1,533.235,296.282Z" transform="translate(7566.241 6513.509)" fill="#1a658d"/>
      <path id="Path_54" data-name="Path 54" d="M218.119,297.973a3.807,3.807,0,0,1,1.592-1.566,3.93,3.93,0,0,1,.669-.194,4.016,4.016,0,0,1,2.8.415c.041,0,.114,0,.141.041a1.785,1.785,0,0,1,.361.389c.108.2-.134.294-.208.442a4.339,4.339,0,0,1-.253.434.261.261,0,0,1-.361.094,4.905,4.905,0,0,1-.622-.308,2.736,2.736,0,0,0-1.8-.294,2.383,2.383,0,0,0-1.251.589,2.484,2.484,0,0,0-.742,1.131,5.673,5.673,0,0,0-.334,1.954v6.364a4.714,4.714,0,0,1-.087.669h-.954c-.22,0-.294-.087-.308-.322V296.689c0-.261.08-.328.348-.334h.589a.436.436,0,0,1,.455.448C218.125,297.2,218.119,297.592,218.119,297.973Z" transform="translate(7759.878 6513.416)" fill="#1a658d"/>
      <path id="Path_55" data-name="Path 55" d="M702.52,284H703.8v13.952a3.732,3.732,0,0,0,.108.863,1.156,1.156,0,0,0,.983.669h.837V300.5c0,.174-.108.281-.253.261a1.647,1.647,0,0,1-.877-.08c-.294-.161-.455-.041-.669-.114-.87-.261-1.064-.669-1.278-1.545a9.164,9.164,0,0,1-.1-2.255C702.52,292.518,702.52,288.276,702.52,284Z" transform="translate(7461.625 6520.885)" fill="#0e648c"/>
      <path id="Path_56" data-name="Path 56" d="M848.162,308.443h-.856c-.3,0-.32-.08-.334-.348v-10.86c0-.507,0-.6.548-.569h.569l.281.261v10.881A.76.76,0,0,1,848.162,308.443Z" transform="translate(7372.892 6513.119)" fill="#1a658d"/>
      <path id="Path_57" data-name="Path 57" d="M846.7,283.93h1.225c.314,0,.388.061.388.348v1.158c0,.194-.087.3-.267.3h-1.064c-.181,0-.267-.1-.275-.3C846.7,284.961,846.7,284.466,846.7,283.93Z" transform="translate(7373.083 6520.88)" fill="#1a658d"/>
      <path id="Path_58" data-name="Path 58" d="M69.007,88.931l-4.964-3.073-.876.237-.32-.983L51.715,78.22l-9.835.819a1.458,1.458,0,0,0-1.2.819L31.906,98.4l.32,1.156-.976.23-9.433,19.98.434.943L21.234,121,12.172,140.12a1.45,1.45,0,0,0,.582,1.893l16.563,9.618h1.353v.754L41.25,158.54Z" transform="translate(7894.803 6633.233)" fill="#f1efef"/>
      <path id="Path_59" data-name="Path 59" d="M68.786,89.2l.2-.434.082-.2-5.105-3.1a.664.664,0,0,0-.943.107,1.086,1.086,0,0,0-.475-.976L51.888,77.963a1.336,1.336,0,0,0-.822-.2l-9.463.776a1.73,1.73,0,0,0-1.418.984L31.5,97.782c0,.1-.32.9.23,1.286a1.378,1.378,0,0,0-1.253.876L21.46,118.983s-.36.894.222,1.3a1.385,1.385,0,0,0-1.263.894h0l-8.772,18.539a1.73,1.73,0,0,0,.689,2.221l15.9,9.228s1.148.607,1.706.4c0,0-.352.385.5.876h0l10.6,6.155L62.6,104.61,70.908,90.6Zm-36.74,8.712,8.627-18.223a1.2,1.2,0,0,1,.983-.679l9.72-.825.074.05a1.123,1.123,0,0,1,.475,1.336h0c-.164.417-3.787,8.6-8.327,18.925a.819.819,0,0,1-.721.475H32.761a.819.819,0,0,1-.714-1.1ZM22.071,119l8.9-18.843a.819.819,0,0,1,.721-.451l10.122.09a.819.819,0,0,1,.7,1.086l-8.26,18.77a.819.819,0,0,1-.721.475H22.775a.819.819,0,0,1-.714-1.123Zm18.734,38.879L12.63,141.5a1.205,1.205,0,0,1-.475-1.54L21,121.263a.819.819,0,0,1,.721-.451l10.777.09a.819.819,0,0,1,.714,1.115l-8.63,19.521a1.106,1.106,0,0,0,.475,1.418l11.1,6.425,24.735-41.8Z" transform="translate(7895.099 6633.511)" fill="#b1b2b4"/>
      <path id="Path_60" data-name="Path 60" d="M37.853,220.687l-11.039-6.393a4.5,4.5,0,0,0-1.992-.6l-10.023-.6L38.879,227.1Z" transform="translate(7893.371 6562.362)" fill="#b1b2b4"/>
      <path id="Path_61" data-name="Path 61" d="M28.2,216.426l-7.1-.507a.188.188,0,0,0-.107.344l12.588,7.1a3.534,3.534,0,0,0,1.64.451l7.376.23-13.3-7.319a2.581,2.581,0,0,0-1.1-.295Z" transform="translate(7890.167 6560.872)" fill="#c9cacb"/>
      <path id="Path_62" data-name="Path 62" d="M60.41,234.639l-7.1-.509a.188.188,0,0,0-.107.352l12.588,7.1a3.475,3.475,0,0,0,1.64.45l7.376.23L61.5,234.968a2.613,2.613,0,0,0-1.066-.327Z" transform="translate(7873.183 6551.295)" fill="#c9cacb"/>
      <path id="Path_63" data-name="Path 63" d="M53.269,197.756l-8.4-4.917a.9.9,0,0,1-.41-1.148l7.2-17.211a.909.909,0,0,1,1.32-.417l4.917,3.1Z" transform="translate(7877.783 6582.943)" fill="#c9cacb"/>
      <path id="Path_64" data-name="Path 64" d="M71.5,151.817l-8.146-4.368a.909.909,0,0,1-.41-1.148l7.2-17.2a.909.909,0,0,1,1.32-.417l4.917,3.1Z" transform="translate(7868.039 6606.808)" fill="#c9cacb"/>
      <path id="Path_65" data-name="Path 65" d="M57.77,168.532a1.037,1.037,0,0,0-.2-.132Z" transform="translate(7870.813 6585.83)" fill="#9ea0a2"/>
      <path id="Path_66" data-name="Path 66" d="M45.317,127.147l-7.638,16.391a.746.746,0,0,0,.7,1.049h7.794a.776.776,0,0,0,.7-.442l3.787-8.2V126.59L46,126.7A.819.819,0,0,0,45.317,127.147Z" transform="translate(7881.353 6607.818)" fill="#17658b"/>
      <path id="Path_67" data-name="Path 67" d="M61.715,99.927s.132-3.991.132-6.081a2.221,2.221,0,0,1,1.64-2.394l7.507-.434a.776.776,0,0,0,.656-.442l3.568-7.736a.754.754,0,0,0-.776-1.049l-7.941.62a.762.762,0,0,0-.639.434l-7.474,16.08a.746.746,0,0,0,.737,1.033Z" transform="translate(7870.435 6631.394)" fill="#17658b"/>
      <path id="Path_68" data-name="Path 68" d="M24.641,171.708l-7.654,16.443a.754.754,0,0,0,.664,1.049l7.671.417a.819.819,0,0,0,.746-.442l7.786-16.867a.746.746,0,0,0-.7-1.049H25.342a.776.776,0,0,0-.7.451Z" transform="translate(7892.254 6584.338)" fill="#17658b"/>
      <path id="Path_69" data-name="Path 69" d="M155.778,172.2l.053-21.3-.582-.656.589-.894L155.9,126.8l-.776-.574.819-.909.025-21.128a2.459,2.459,0,0,0-2.287-2.459L91.934,98.28h-.31l-25.4,1.754a2.459,2.459,0,0,0-2.254,2.369L62.6,170.867a2.459,2.459,0,0,0,2.212,2.459L89.3,175.409l.532-.434.344.509h.574l23.021-.327.819-.589.6.566,20.734-.295.951-.524.991.5,15.474-.222a2.459,2.459,0,0,0,2.443-2.387Z" transform="translate(7868.221 6622.672)" fill="#f1efef"/>
      <path id="Path_70" data-name="Path 70" d="M188.024,126.082V107a1.033,1.033,0,0,0-.18-.589h0a1.031,1.031,0,0,0-.776-.434l-59.4-3.647a1.016,1.016,0,0,0-.607.155h0a1.024,1.024,0,0,0-.475.819l-.475,20.079a1.024,1.024,0,0,0,.976,1.041l59.9,2.671a1.025,1.025,0,0,0,1.066-1Z" transform="translate(7834.769 6620.562)" fill="#17658b"/>
      <path id="Path_71" data-name="Path 71" d="M125.792,177.817l60.482,1.64a1.016,1.016,0,0,0,1.049-1.016V158.968a1.016,1.016,0,0,0-.983-1.016l-60.034-2.065a1.016,1.016,0,0,0-1.058.991l-.475,19.873a1.024,1.024,0,0,0,1.024,1.041Z" transform="translate(7835.452 6592.407)" fill="#17658b"/>
      <path id="Path_72" data-name="Path 72" d="M124.069,209.578l-.475,20.3a1,1,0,0,0,.164.565l.172.279a1.033,1.033,0,0,0,.819.475l60.891-.647a1.016,1.016,0,0,0,1.024-1.024v-18.7a1.016,1.016,0,0,0-1-1.016l-60.581-1.229a1.016,1.016,0,0,0-1.058.991Z" transform="translate(7836.069 6564.743)" fill="#17658b"/>
      <path id="Path_73" data-name="Path 73" d="M105.648,89.506h0c-.31-.189-.6.254-.6.254l-.295.754-.746.04s.074-.287.287-1.041a1.033,1.033,0,0,0-.434-1.156l-7.187-4.388a1.458,1.458,0,0,0-2.065.679l-3.14,7.161,16.2-1.086.566.32Z" transform="translate(7852.991 6630.306)" fill="#c9cacb"/>
      <path id="Path_74" data-name="Path 74" d="M190.045,231.053l-7.474-21.308-9.152-.279-.442.532-.639,20.858Z" transform="translate(7810.307 6564.248)" fill="#17658b"/>
      <path id="Path_75" data-name="Path 75" d="M187.2,129.781l.155-2.541a30.4,30.4,0,0,0-10.083-22.028L141.359,103l-1.418,72.506,15.17-.1.647-21.718.442-.532,9.138.279,7.646,21.767,14.645-.172-.09-.123a7.236,7.236,0,0,1-1.385-2.459l-8.727-26.061a22.758,22.758,0,0,0,9.773-16.6Zm-13.341-3.475a10.474,10.474,0,0,1-3.023,8.712,48.284,48.284,0,0,1-15.08.876l.213-18.333V117a43.108,43.108,0,0,1,12.112.369,7.756,7.756,0,0,1,5.769,8.934Z" transform="translate(7827.468 6620.175)" fill="#f1efef"/>
      <path id="Path_76" data-name="Path 76" d="M67.155,157.352l-.434,19.563a.647.647,0,0,0,.631.689l8.425.23a.656.656,0,0,0,.672-.647l.344-19.932a.655.655,0,0,0-.664-.664l-8.327.122a.664.664,0,0,0-.647.639Z" transform="translate(7866.032 6592.063)" fill="#59a9db"/>
      <path id="Path_77" data-name="Path 77" d="M105.716,177.084l.337-20.489a.656.656,0,0,0-.664-.664l-8.744.189a.656.656,0,0,0-.647.639L95.49,176.9a.656.656,0,0,0,.647.672l8.917.172a.647.647,0,0,0,.664-.647Z" transform="translate(7850.865 6592.411)" fill="#59a9db"/>
      <path id="Path_78" data-name="Path 78" d="M66.027,210.132,65.6,229.253a.656.656,0,0,0,.621.672l8.515.5a.656.656,0,0,0,.689-.639l.346-19.506a.647.647,0,0,0-.647-.664l-8.425-.123A.656.656,0,0,0,66.027,210.132Z" transform="translate(7866.617 6564.261)" fill="#59a9db"/>
      <path id="Path_79" data-name="Path 79" d="M104.519,230.891l.417-19.965a.656.656,0,0,0-.639-.664L95.357,210a.656.656,0,0,0-.672.639l-.475,19.668a.664.664,0,0,0,.621.672l9.014.532a.656.656,0,0,0,.7-.631Z" transform="translate(7851.547 6564)" fill="#59a9db"/>
      <path id="Path_80" data-name="Path 80" d="M97.145,104.041l-.31,19.358a.656.656,0,0,0,.679.664l8.827-.31a.656.656,0,0,0,.631-.647l.417-19.521a.664.664,0,0,0-.689-.664l-8.941.475a.656.656,0,0,0-.62.647Z" transform="translate(7850.159 6620.221)" fill="#59a9db"/>
      <path id="Path_81" data-name="Path 81" d="M68.3,105.631l-.417,19.186a.656.656,0,0,0,.679.672l8.327-.352a.656.656,0,0,0,.62-.647l.36-19.3a.656.656,0,0,0-.689-.664l-8.253.434a.656.656,0,0,0-.631.672Z" transform="translate(7865.419 6619.345)" fill="#59a9db"/>
      <path id="Path_82" data-name="Path 82" d="M90.134,175.512h-.4a.976.976,0,0,1-.574-.352,1.706,1.706,0,0,1-.819.23L76.1,174.341a.894.894,0,0,1-.557-.254,1.64,1.64,0,0,1-.7.14h-.065l-10.6-.931a2.966,2.966,0,0,1-2.7-3.008l1.377-68.457A2.933,2.933,0,0,1,65.6,98.945L91,97.2h.369l61.74,3.442A2.947,2.947,0,0,1,155.9,103.6l-.057,20.942a1.728,1.728,0,0,1-.36,1.148,1.638,1.638,0,0,1,.36,1.106l-.057,21.767a1.753,1.753,0,0,1-.36,1.156,1.638,1.638,0,0,1,.36,1.123l-.065,20.824a2.958,2.958,0,0,1-2.91,2.947l-15.678.222h-.071a1.008,1.008,0,0,1-.721-.27,1.066,1.066,0,0,1-.7.295l-20.824.295a1.156,1.156,0,0,0-1.533,0l-23.16.327Zm.656-26.66a.582.582,0,0,0-.574.574l-.36,24.636a.656.656,0,0,0,0,.295.6.6,0,0,0,.295.1l22.527-.312a.639.639,0,0,0,.631-.631L113.441,150a.582.582,0,0,0-.566-.582l-22.077-.56v-.262ZM77.178,148.7a.574.574,0,0,0-.574.574l-.349,23.405a.639.639,0,0,0,.582.639l11.113.943h.025a.639.639,0,0,0,.639-.631l.36-24.241a.589.589,0,0,0-.164-.41.6.6,0,0,0-.41-.172l-11.236-.1h0Zm38.108.762a.574.574,0,0,0-.574.574l-.132,23.415a.639.639,0,0,0,.189.475.621.621,0,0,0,.451.188l19.875-.287a.631.631,0,0,0,.631-.631v-22.65a.574.574,0,0,0-.566-.574l-19.876-.475h0Zm22.242.557a.582.582,0,0,0-.549.574v22.538a.639.639,0,0,0,.639.639l15.219-.222a1.893,1.893,0,0,0,1.861-1.893l.057-20.6a.647.647,0,0,0-.621-.639l-16.563-.419v-.262ZM62.563,170.325a1.892,1.892,0,0,0,1.73,1.917l10.04.819h.061a.647.647,0,0,0,.639-.631l.352-23.193a.582.582,0,0,0-.574-.582l-11.8-.115Zm75-44.676a.574.574,0,0,0-.557.574V148.2a.574.574,0,0,0,.566.582l16.563.417a.647.647,0,0,0,.656-.639l.057-21.62a.639.639,0,0,0-.607-.639l-16.637-.656v-.262Zm-22.127-.869a.582.582,0,0,0-.574.574l-.132,22.292a.574.574,0,0,0,.566.582l19.841.475a.582.582,0,0,0,.59-.574v-22a.574.574,0,0,0-.557-.574l-19.71-.776v-.262Zm-24.258-.943a.582.582,0,0,0-.582.566l-.327,22.628a.574.574,0,0,0,.566.589l22.062.557a.574.574,0,0,0,.589-.574l.14-22.324a.582.582,0,0,0-.557-.582l-21.857-.819v-.262Zm-2.459,0-11.236.385a.574.574,0,0,0-.557.574l-.337,22.242a.582.582,0,0,0,.574.589H88.4a.582.582,0,0,0,.574-.574l.337-22.611a.574.574,0,0,0-.582-.589v-.262ZM74.784,147.6a.582.582,0,0,0,.574-.574l.337-22.127a.574.574,0,0,0-.574-.589h0l-11.662.4-.475,22.9Zm62.1-44.845a.268.268,0,0,1,.05.155v20.942a.574.574,0,0,0,.557.574l16.637.631a.647.647,0,0,0,.664-.639l.057-20.824a1.893,1.893,0,0,0-1.787-1.893l-15.481-.861a.647.647,0,0,0-.672.621Zm-21.308-3.135a.631.631,0,0,0-.631.631l-.132,22.718a.582.582,0,0,0,.557.582l19.668.776a.582.582,0,0,0,.6-.574V101.311a.647.647,0,0,0-.6-.639l-19.415-1.086v-.262Zm-49.992.4a1.893,1.893,0,0,0-1.754,1.844l-.442,21.857,11.72-.524a.582.582,0,0,0,.557-.574l.344-22.636a.621.621,0,0,0-.188-.475.647.647,0,0,0-.475-.2Zm25.6-1.754a.155.155,0,0,0-.115.05,1.288,1.288,0,0,0-.18.738l-.352,22.948a.574.574,0,0,0,.557.589l21.849.861a.589.589,0,0,0,.6-.574l.13-22.751a.639.639,0,0,0-.607-.639L91.255,98.286Zm-13.341.909a.631.631,0,0,0-.574.62l-.344,22.718a.582.582,0,0,0,.582.589l11.261-.475a.574.574,0,0,0,.557-.566l.344-22.948a.656.656,0,0,0-.189-.475.647.647,0,0,0-.475-.2Z" transform="translate(7868.768 6623.223)" fill="#c9cacb"/>
      <path id="Path_83" data-name="Path 83" d="M155.272,150.019a1.241,1.241,0,0,0,.541-1.188l.065-21.767c0-.32-.09-.943-.532-1.086a1.253,1.253,0,0,0,.541-1.188l.057-20.942a2.681,2.681,0,0,0-2.541-2.688L91.66,97.732a2.026,2.026,0,0,0-.337,0l-25.4,1.753a2.671,2.671,0,0,0-2.5,2.623L62,170.573a2.7,2.7,0,0,0,2.459,2.729l10.614.9h0s.647,0,.819-.262a.656.656,0,0,0,.532.385h0l12.2,1.041s.721,0,.9-.475a.621.621,0,0,0,.509.574h.41l23.152-.287a.746.746,0,0,0,.721-.557.714.714,0,0,0,.819.532h0l20.824-.295h0a.746.746,0,0,0,.721-.557.714.714,0,0,0,.819.541h0l15.686-.222a2.7,2.7,0,0,0,2.646-2.681l.057-20.824C155.8,150.789,155.724,150.134,155.272,150.019Zm-77.93-49.992a.9.9,0,0,1,.819-.894l11.113-.776a.9.9,0,0,1,.951.909L89.9,122.214a.819.819,0,0,1-.819.819l-11.236.5a.819.819,0,0,1-.886-.819Zm-13.425,2.057a2.139,2.139,0,0,1,2.007-2.107l9.745-.672a.9.9,0,0,1,.951.909l-.349,22.636a.819.819,0,0,1-.819.819l-12.007.532ZM75.53,172.72a.9.9,0,0,1-.984.886l-10.04-.819A2.155,2.155,0,0,1,62.54,170.6l.442-22.028,12.064.115a.819.819,0,0,1,.819.819Zm.385-25.464a.819.819,0,0,1-.819.819H63l.475-23.415,11.917-.41a.819.819,0,0,1,.869.819Zm13.252,26.627a.9.9,0,0,1-.984.886l-11.113-.942a.9.9,0,0,1-.819-.918l.352-23.4a.819.819,0,0,1,.819-.819l11.236.107a.819.819,0,0,1,.819.819Zm.394-26.627a.819.819,0,0,1-.819.819H77.474a.819.819,0,0,1-.819-.819l.337-22.242a.819.819,0,0,1,.819-.819l11.236-.385a.819.819,0,0,1,.876.819Zm24.316,26.48a.9.9,0,0,1-.894.9l-22.546.32a.876.876,0,0,1-.475-.18c-.14-.14-.1-.475-.1-.475l.36-24.636a.819.819,0,0,1,.869-.819l22.079.557a.819.819,0,0,1,.819.819Zm.14-25.906a.819.819,0,0,1-.869.819l-22.062-.557a.819.819,0,0,1-.819-.819l.327-22.628a.819.819,0,0,1,.876-.819l21.857.819a.819.819,0,0,1,.819.819Zm.155-24.726a.819.819,0,0,1-.876.819l-21.842-.861a.819.819,0,0,1-.819-.819L90.987,99.3s0-1.058.557-1.058h.082l21.817,1.213a.9.9,0,0,1,.819.9ZM155.288,148.8a.909.909,0,0,1-.943.9l-16.563-.417a.819.819,0,0,1-.819-.819V126.482a.819.819,0,0,1,.876-.819l16.637.656a.894.894,0,0,1,.869.9Zm-19.029,24.589a.909.909,0,0,1-.894.909l-19.873.279a.9.9,0,0,1-.918-.909l.132-23.415a.819.819,0,0,1,.869-.819l19.875.475a.819.819,0,0,1,.819.819Zm0-25.03a.819.819,0,0,1-.869.819l-19.856-.475a.819.819,0,0,1-.819-.819l.14-22.284a.819.819,0,0,1,.876-.819l19.668.776a.819.819,0,0,1,.819.819Zm0-45.894v21.485a.819.819,0,0,1-.876.819l-19.668-.776a.819.819,0,0,1-.819-.819l.132-22.718a.909.909,0,0,1,.943-.9l19.448,1.106a.909.909,0,0,1,.819.9v.9l.656.776v-1.551a.9.9,0,0,1,.943-.876l15.482.861a2.155,2.155,0,0,1,2.032,2.155l-.057,20.824a.9.9,0,0,1-.943.9l-16.637-.656a.819.819,0,0,1-.819-.819V103.157Zm18.972,69.445a2.172,2.172,0,0,1-2.122,2.155l-15.21.213a.9.9,0,0,1-.918-.9V150.831a.819.819,0,0,1,.869-.819l16.563.417a.9.9,0,0,1,.876.909Z" transform="translate(7868.512 6622.958)" fill="#c9cacb"/>
    </g>
  </g>
</svg>
